<?xml version="1.0" encoding="utf-8"?>
<!-- Generator: Adobe Illustrator 22.0.1, SVG Export Plug-In . SVG Version: 6.00 Build 0)  -->
<svg version="1.1" id="Layer_1" xmlns="http://www.w3.org/2000/svg" xmlns:xlink="http://www.w3.org/1999/xlink" x="0px" y="0px"
	 viewBox="0 0 51.6 64" style="enable-background:new 0 0 51.6 64;" xml:space="preserve">
<style type="text/css">
	.st0{fill:#00785A;}
</style>
<title>file_8</title>
<path class="st0" d="M31.1,43.7c0.8-0.7,2.1-0.7,2.8,0.1c0.7,0.8,0.7,1.9,0,2.7l-6.7,6.7c-0.8,0.8-2,0.8-2.8,0l-6.7-6.7
	c-0.7-0.8-0.7-2.1,0.1-2.8c0.8-0.7,1.9-0.7,2.7,0l3.3,3.3V31.7c0-1.1,0.9-2,2-2s2,0.9,2,2V47L31.1,43.7z M51.6,20.5v37.3
	c0,3.4-2.8,6.2-6.2,6.2H6.2C2.8,64,0,61.2,0,57.8V6.2C0,2.8,2.8,0,6.2,0h22.3c2.2,0,4.3,0.9,5.9,2.4l16.6,16.6
	C51.4,19.4,51.6,20,51.6,20.5z M33.2,18.5h11.7L33.2,6.8V18.5z M47.6,22.5H31.2c-1.1,0-2-0.9-2-2V4.1C28.9,4,28.7,4,28.5,4H6.2
	C5,4,4,5,4,6.2v51.5C4,59,5,60,6.2,60h39.2c1.2,0,2.2-1,2.2-2.2V22.5z"/>
</svg>
