<svg xmlns="http://www.w3.org/2000/svg" fill="#00785a" viewBox="0 0 100 125" x="0px" y="0px">
    <path
        d="M51.726,12.77631A35.53722,35.53722,0,0,1,87.2215,48.27191a2.96665,2.96665,0,0,0,5.93329,0A41.47424,41.47424,0,0,0,51.726,6.84308a2.96662,2.96662,0,0,0,0,5.93323Z" />
    <path
        d="M51.726,24.541A23.75686,23.75686,0,0,1,75.45648,48.27155a2.96662,2.96662,0,0,0,5.93323,0,29.4637,29.4637,0,0,0-8.69666-20.96674l-.00036-.00037A29.46258,29.46258,0,0,0,51.726,18.60779a2.96662,2.96662,0,0,0,0,5.93323Z" />
    <path
        d="M51.72559,36.30609A11.98058,11.98058,0,0,1,63.69141,48.27191a2.96661,2.96661,0,1,0,5.93322,0,17.91743,17.91743,0,0,0-17.899-17.899,2.96662,2.96662,0,1,0,0,5.93323Z" />
    <path
        d="M79.92767,61.65338a13.48129,13.48129,0,0,0-9.72992-4.17572A9.00037,9.00037,0,0,0,63.64,60.39478L57.354,67.41553A58.67664,58.67664,0,0,1,32.58441,42.64594L39.60419,36.361a9.00152,9.00152,0,0,0,2.91809-6.55877,13.48109,13.48109,0,0,0-4.17572-9.73L27.47241,9.19812A13.21276,13.21276,0,0,0,16.6358,5.09167a8.55381,8.55381,0,0,0-6.46661,4.24164c-4.56433,7.97827-6.14905,17.71778-4.5824,28.1651C7.57886,50.77374,14.57336,63.991,25.28467,74.718,36.00891,85.42664,49.22589,92.42145,62.50122,94.41351c10.44769,1.56629,20.1872-.01843,28.16681-4.58343a8.55333,8.55333,0,0,0,4.24023-6.46588,13.21279,13.21279,0,0,0-4.10638-10.83661Zm9.09858,20.92615a2.67758,2.67758,0,0,1-1.30573,2.10065c-6.80841,3.89508-15.22473,5.2315-24.339,3.865-12.03-1.8053-24.07062-8.207-33.90094-18.023C19.6618,60.68909,13.26007,48.6485,11.45514,36.6181c-1.36688-9.11389-.0304-17.53027,3.86395-24.33728a2.67793,2.67793,0,0,1,2.10138-1.30713,7.32046,7.32046,0,0,1,5.856,2.42029L34.1507,24.26813a7.66568,7.66568,0,0,1,2.44006,5.36914,3.14872,3.14872,0,0,1-.94379,2.30145L25.33313,41.17358l.90967,1.98731A62.71231,62.71231,0,0,0,38.85022,61.14972,62.71243,62.71243,0,0,0,56.83911,73.7572l1.98731.90961L68.06226,64.352a3.14794,3.14794,0,0,1,2.30041-.94281,7.66582,7.66582,0,0,1,5.36914,2.44006L86.606,76.72345A7.32074,7.32074,0,0,1,89.02625,82.57953Z" />
</svg>