<svg xmlns="http://www.w3.org/2000/svg" viewBox="0 0 24 24">
    <g fill="none" fill-rule="evenodd">
        <path d="M0 0h24v24H0z"/>
        <path fill="#00785A" d="M8 3v.5A1.5 1.5 0 0 0 9.5 5h5A1.5 1.5 0 0 0 16 3.5V3h2a2 2 0 0 1 2 2v16a2 2 0 0 1-2 2H6a2 2 0 0 1-2-2V5a2 2 0 0 1 2-2h2z" opacity=".3"/>
        <path fill="#00785A" d="M10.875 15.75a.946.946 0 0 1-.67-.287l-1.918-1.917a.926.926 0 0 1 0-1.342c.384-.383 1.007-.383 1.342 0l1.246 1.246 3.162-3.162a.926.926 0 0 1 1.342 0 .926.926 0 0 1 0 1.341l-3.833 3.834a.946.946 0 0 1-.671.287zM11 2a1 1 0 0 1 2 0h1.5a.5.5 0 0 1 .5.5v1a.5.5 0 0 1-.5.5h-5a.5.5 0 0 1-.5-.5v-1a.5.5 0 0 1 .5-.5H11z"/>
    </g>
</svg>
