<?xml version="1.0" encoding="utf-8"?>
<!-- Generator: Adobe Illustrator 22.0.1, SVG Export Plug-In . SVG Version: 6.00 Build 0)  -->
<svg version="1.1" id="Layer_1" xmlns="http://www.w3.org/2000/svg" xmlns:xlink="http://www.w3.org/1999/xlink" x="0px" y="0px"
	 viewBox="0 0 98.8 98.8" style="enable-background:new 0 0 98.8 98.8;" xml:space="preserve">
<g>
	<path d="M70.4,64.2L55.6,49.4l14.8-14.8c1.7-1.7,1.7-4.4,0-6.1s-4.4-1.7-6.1,0L49.5,43.3L34.7,28.5c-1.7-1.7-4.4-1.7-6.1,0
		s-1.7,4.4,0,6.1l14.8,14.8L28.6,64.2c-1.7,1.7-1.7,4.4,0,6.1s4.4,1.7,6.1,0l14.8-14.8l14.8,14.8c1.7,1.7,4.4,1.7,6.1,0
		C72.1,68.6,72.1,65.9,70.4,64.2z"/>
	<path d="M84.4,14.5c-19.3-19.3-50.6-19.3-69.9,0s-19.3,50.6,0,69.9s50.6,19.3,69.9,0C103.7,65,103.7,33.8,84.4,14.5z M20.7,78.2
		c-15.9-15.9-15.9-41.7,0-57.6s41.7-15.9,57.6,0s15.9,41.7,0,57.6S36.6,94.1,20.7,78.2z"/>
</g>
</svg>
