<?xml version="1.0" encoding="UTF-8"?>
<!DOCTYPE svg PUBLIC "-//W3C//DTD SVG 1.1//EN" "http://www.w3.org/Graphics/SVG/1.1/DTD/svg11.dtd">
<!-- Creator: CorelDRAW 2019 (64-Bit) -->
<svg xmlns="http://www.w3.org/2000/svg" xml:space="preserve" width="175.097mm" height="184.084mm" version="1.1"
    style="shape-rendering:geometricPrecision; text-rendering:geometricPrecision; image-rendering:optimizeQuality; fill-rule:evenodd; clip-rule:evenodd"
    viewBox="0 0 3785.21 3979.48" xmlns:xlink="http://www.w3.org/1999/xlink">
    <g id="Layer_x0020_1">
        <path
            d="M2917.02 1403.52l-738.95 0c-29.15,0 -52.76,23.62 -52.76,52.76 0,29.15 23.62,52.76 52.76,52.76l738.95 -0c29.15,0 52.76,-23.62 52.76,-52.76 -0,-29.15 -23.62,-52.76 -52.76,-52.76z" />
        <path
            d="M623.24 1381.56c-94.16,0 -170.76,76.59 -170.76,170.76 0,94.16 76.6,170.76 170.76,170.76 94.16,0 170.76,-76.6 170.76,-170.76 0,-94.16 -76.61,-170.76 -170.76,-170.76zm0.01 235.99c-35.97,0 -65.23,-29.27 -65.23,-65.23 0,-35.97 29.27,-65.23 65.23,-65.23 35.97,0 65.23,29.26 65.23,65.23 0,35.97 -29.27,65.23 -65.23,65.23z" />
        <path
            d="M1185.3 1126.22c-111.9,0 -202.92,91.03 -202.92,202.92 0,111.89 91.03,202.92 202.92,202.92 111.89,0 202.92,-91.03 202.92,-202.92 0,-111.89 -91.03,-202.92 -202.92,-202.92zm-0.01 300.31c-53.7,0 -97.4,-43.69 -97.4,-97.4 0,-53.71 43.69,-97.39 97.4,-97.39 53.71,0 97.39,43.69 97.39,97.39 0,53.71 -43.69,97.4 -97.39,97.4z" />
        <path
            d="M2803.93 2615.68l-512.79 0c-29.15,0 -52.76,23.62 -52.76,52.76 0,29.15 23.62,52.76 52.76,52.76l512.79 -0c29.15,0 52.76,-23.62 52.76,-52.76 0.01,-29.15 -23.63,-52.76 -52.76,-52.76z" />
        <path class="fil0"
            d="M2725.64 2144.61l-106.43 -148.76c-16.5,-23.07 -43.29,-36.86 -71.67,-36.86 -28.38,0 -55.17,13.78 -71.67,36.86l-106.42 148.76c-71.25,99.6 -51.28,239.79 44.55,312.53 39.23,29.77 86.13,44.76 128.35,45.52 1.32,0.03 2.91,0.11 4.94,0.11 1.32,0 2.24,0 4.64,-0.08 0.7,-0.02 1.76,-0.05 2.09,-0.06 180.71,-6.9 275.36,-213 171.62,-358.02zm-108.35 228.47c-0.01,0 -0.01,0 -0.01,0.01 -105.32,79.92 -242.52,-54.51 -162,-167.07l92.27 -128.98 92.27 128.98c38.35,53.6 28.24,128.54 -22.53,167.06z" />
        <path
            d="M2803.93 2809.65l-512.79 0c-29.15,0 -52.76,23.62 -52.76,52.76 0,29.15 23.62,52.76 52.76,52.76l512.79 0c29.15,0 52.76,-23.62 52.76,-52.76 0.01,-29.15 -23.63,-52.76 -52.76,-52.76z" />
        <path
            d="M2955.72 1061.96c30.17,-95.24 -41.41,-192.24 -140.85,-192.24l-38.69 0 0 -164.35c0,-69.78 -31.46,-132.33 -80.9,-174.3l0 -235.59 162.4 0c81.46,0 147.74,-66.27 147.74,-147.74 -0.01,-81.46 -66.28,-147.74 -147.74,-147.74l-468.01 0c-256.84,0 -353.83,209.86 -399.89,252.17 -51.15,63.63 -41.05,156.55 22.62,207.7 44.1,35.45 93.2,32.7 92.49,32.58 45.02,-0.01 87.01,-20.12 115.21,-55.19l79.08 -98.41c22.14,-27.56 55.13,-43.37 90.48,-43.37l10.15 0 0 235.59c-49.44,41.97 -80.9,104.51 -80.9,174.3l0 164.35 -38.69 -0c-81.46,0 -147.74,66.27 -147.74,147.74 0,15.51 2.43,30.45 6.89,44.51 -209.9,21.95 -374.07,199.91 -374.07,415.53l0 90.09c0,29.15 23.62,52.76 52.76,52.76 29.15,0 52.76,-23.62 52.76,-52.76l0 -90.09c0,-172.21 140.1,-312.31 312.31,-312.31 76.68,0 633.41,0 728.83,0 172.21,0 312.31,140.1 312.31,312.31l0 1673.95c0,172.21 -140.1,312.31 -312.31,312.31l-728.83 0c-83.16,0 -161.63,-33.16 -219.67,-90.94 60.25,-31.32 108.69,-77.51 142.48,-130.94 5.88,0.27 580.94,0.15 877.6,0.18 66.04,0 119.77,-53.73 119.77,-119.77l0 -136.76c0,-29.15 -23.62,-52.76 -52.76,-52.76 -29.15,0 -52.76,23.62 -52.76,52.76l0 136.75c0,7.86 -6.39,14.25 -14.25,14.25l-831.55 -0c28.81,-108 5.95,-221.33 -54.68,-308.99l0 -1104.85c0,-7.86 6.39,-14.25 14.25,-14.25l871.98 0c7.86,0 14.25,6.39 14.25,14.25l0 1016.62c0,29.15 23.62,52.76 52.76,52.76 29.15,0 52.76,-23.62 52.76,-52.76l-0 -1016.62c0,-66.05 -53.73,-119.78 -119.77,-119.78l-871.98 0c-66.04,0 -119.77,53.73 -119.77,119.78l0 1003.17c-36.96,-23.62 -77.91,-40.57 -120.95,-49.99l-0 -862.05c0,-29.15 -23.62,-52.76 -52.76,-52.76 -29.15,0 -52.76,23.62 -52.76,52.76l0 631.99c-57.1,-160.33 -211.45,-258.09 -374.44,-247.83 34.53,-251.64 -168.47,-449.43 -405.6,-551.14 -35.02,-15.02 -74.62,-10.93 -105.95,10.97 -30.98,21.65 -48.25,56.99 -46.21,94.54 5.82,106.58 -108.02,102.26 -224.68,253.48 -48.83,63.31 -72.88,128.92 -71.96,195.94 -261.74,-41.08 -489.19,201.74 -418.47,465.97 -1.05,-0.05 -2.09,-0.07 -3.14,-0.1 20.06,20.07 27.21,40.09 45.42,77.11 10.72,21.81 12.78,10.83 22.08,40.65 1.67,0.53 3.34,1.02 5.02,1.58 20.95,7.04 44.08,0.27 57.92,-16.97 13.84,-17.23 15.48,-41.28 4.09,-60.23 -129.97,-216.18 83.12,-472.37 316.92,-392.26 6.49,2.22 13.01,4.35 19.54,6.46 41.24,13.32 79.95,-26.08 66.25,-66.96 -45.97,-137.28 75.44,-238.03 192.98,-321.78 65.3,-46.53 97.62,-111.77 93.43,-188.62 -0.03,-0.6 -0.08,-1.34 1.29,-2.3 1.92,-1.33 3.36,-0.72 3.9,-0.48 220.09,94.42 405.14,280.9 327.28,502.6 -14.26,40.6 23.68,80.45 64.99,68.01 235.26,-70.9 432.9,186.08 307.12,395.34 -25.19,41.93 15.59,92.81 62.03,77.2 220.09,-73.96 430.67,152.3 326.66,371.47 -30,61.96 -81.63,109.38 -146.27,133.88 -7.52,2.85 -15.09,5.51 -22.63,8.29l-2.96 1.08c-0.05,0.01 -0.08,0.04 -0.13,0.06 -292.55,107.48 -599.71,162.12 -913.54,162.12 -98.5,0 -197.76,-5.54 -296.1,-16.51 33.28,33.51 70.92,72.1 91.47,114.43 68.21,5.05 136.59,7.59 204.62,7.59 313.01,0 619.7,-52.18 912.73,-155.11 79.23,97.76 197.59,155.03 324.2,155.03l728.84 0c230.38,0.02 417.82,-187.43 417.82,-417.82l-0 -1673.96c0.01,-215.61 -164.16,-393.58 -374.07,-415.53zm-566.06 -872.01c-67.5,0 -130.47,30.17 -172.75,82.79 -74.71,86.05 -78,114.19 -112.04,114.19 -0.01,0 -0.01,0 -0.02,0 -41.47,-3.99 -52.21,-44.54 -32.82,-68.65l79.08 -98.42c58.39,-72.66 145.34,-114.34 238.55,-114.34l468.02 0c23.28,0 42.21,18.93 42.21,42.21 0,23.28 -18.93,42.21 -42.21,42.21l-215.16 0c-82.04,0.01 -179.78,0.01 -252.85,0.01zm196.08 398.45c3.98,1.3 8.08,2.91 10.75,4.07 43.59,18.97 74.16,62.41 74.16,112.91l0 164.35 -246.22 0 0 -164.35c0,-83.12 81.59,-143.03 161.31,-116.98zm-80.41 -107.76l0 -185.16 84.42 0 0 185.16c-27.44,-5.16 -56.97,-5.16 -84.42,0zm309.54 579.02l-534.66 0c-23.28,0 -42.21,-18.93 -42.21,-42.21 0,-23.28 18.93,-42.21 42.21,-42.21 123.77,0 417.87,0 534.66,0 23.28,0 42.21,18.93 42.21,42.21 0,23.28 -18.93,42.21 -42.21,42.21z" />
        <path d="M146.68 2400.17c-1.08,2.06 -2.14,4.14 -3.17,6.23z" />
        <path d="M886 3568.69l3.46 0.07c11.53,0.24 23.05,0.4 34.56,0.5z" />
        <path d="M872.16 3568.35c4.61,0.13 9.22,0.24 13.84,0.34 -4.61,-0.1 -9.22,-0.21 -13.84,-0.34z" />
        <path d="M851.4 3567.72c5.75,0.2 11.5,0.38 17.25,0.54 -5.75,-0.16 -11.5,-0.34 -17.25,-0.54z" />
        <path d="M827.17 3566.78c5.77,0.25 11.54,0.48 17.31,0.69 -5.77,-0.21 -11.54,-0.45 -17.31,-0.69z" />
        <path d="M771.78 3563.83c4.62,0.29 9.23,0.57 13.85,0.84 -4.62,-0.27 -9.23,-0.55 -13.85,-0.84z" />
        <path d="M716.43 3559.78c3.46,0.29 6.91,0.57 10.37,0.84 -3.46,-0.27 -6.92,-0.56 -10.37,-0.84z" />
        <polygon class="fil0" points="252.99,2756.86 253.08,2756.64 253.08,2756.64 " />
        <path d="M177.25 2783.77c3.36,0.99 6.73,2.05 10.1,3.18 -3.37,-1.13 -6.73,-2.19 -10.1,-3.18z" />
        <path d="M167.22 2781.01c3.22,0.82 6.45,1.71 9.69,2.66 -3.23,-0.95 -6.46,-1.84 -9.69,-2.66z" />
        <path d="M157.49 2778.72c2.97,0.64 5.94,1.34 8.93,2.09 -2.98,-0.75 -5.96,-1.45 -8.93,-2.09z" />
        <path d="M147.81 2776.79c2.63,0.47 5.26,0.99 7.89,1.54 -2.64,-0.55 -5.27,-1.07 -7.89,-1.54z" />
        <path d="M138.39 2775.27c2.16,0.31 4.33,0.65 6.5,1.01 -2.17,-0.37 -4.34,-0.7 -6.5,-1.01z" />
        <path d="M128.65 2774.05c1.85,0.2 3.71,0.42 5.57,0.65 -1.86,-0.24 -3.71,-0.45 -5.57,-0.65z" />
        <path d="M109.91 2509.67c-0.21,1.23 -0.4,2.47 -0.6,3.71l0.6 -3.71z" />
        <path d="M111.95 2498.52c-0.23,1.17 -0.46,2.34 -0.68,3.51 0.22,-1.17 0.44,-2.34 0.68,-3.51z" />
        <path d="M114.44 2486.99c-0.28,1.18 -0.55,2.37 -0.81,3.56 0.26,-1.19 0.54,-2.38 0.81,-3.56z" />
        <path d="M117.36 2475.37c-0.41,1.53 -0.81,3.07 -1.2,4.6 0.39,-1.54 0.79,-3.07 1.2,-4.6z" />
        <path d="M120.64 2463.87c-0.52,1.72 -1.03,3.45 -1.53,5.18 0.5,-1.73 1.01,-3.46 1.53,-5.18z" />
        <path d="M124.02 2453.31c-0.5,1.5 -1,2.99 -1.49,4.5 0.48,-1.5 0.98,-3 1.49,-4.5z" />
        <path d="M127.88 2442.4c-0.67,1.8 -1.32,3.61 -1.96,5.42 0.64,-1.81 1.29,-3.62 1.96,-5.42z" />
        <path d="M132.25 2431.23c-0.8,1.96 -1.59,3.93 -2.36,5.9 0.77,-1.97 1.55,-3.94 2.36,-5.9z" />
        <path d="M136.86 2420.48c-0.94,2.09 -1.86,4.2 -2.75,6.31 0.9,-2.11 1.82,-4.22 2.75,-6.31z" />
        <path
            d="M146.68 2400.17c-1.08,2.06 -2.14,4.14 -3.17,6.23 -0.74,1.49 -1.48,2.99 -2.2,4.49 -0.95,1.97 -1.87,3.95 -2.78,5.93 0.91,-1.98 1.84,-3.96 2.78,-5.93z" />
        <polygon points="3191.99,3289.6 3191.88,3289.82 3191.99,3289.6 " />
        <path d="M1996.34 213.02c-2.3,2.56 -4.49,4.82 -6.57,6.73 2.08,-1.91 4.27,-4.16 6.57,-6.73z" />
        <path d="M1998.68 210.35c-0.59,0.69 -1.18,1.37 -1.76,2.02 0.58,-0.65 1.17,-1.33 1.76,-2.02z" />
        <path d="M2001.26 207.29c-0.68,0.82 -1.34,1.62 -2.01,2.39 0.66,-0.78 1.33,-1.57 2.01,-2.39z" />
        <path
            d="M1892.6 194.27c39.03,0 77.78,1.21 116.23,3.54 -7.22,9.3 -13.51,16.84 -19.06,21.94 -23.13,28.77 -33.73,63.54 -32.52,97.72 -21.46,-0.77 -43,-1.18 -64.65,-1.18 -488.94,0 -931.59,198.18 -1252,518.59 -320.41,320.41 -518.59,763.06 -518.59,1252 0,105.43 9.24,208.69 26.9,309.05 -42.36,78.72 -57.18,173.78 -30.95,271.79 -9.1,-0.39 -18.17,-0.44 -27.2,-0.17 -58.93,-182.98 -90.77,-378.11 -90.77,-580.68 0,-522.62 211.84,-995.78 554.34,-1338.27 342.49,-342.49 815.65,-554.34 1338.27,-554.34zm802.68 178.17c200.13,93.86 381.15,221.72 535.59,376.16 342.49,342.49 554.34,815.65 554.34,1338.27 0,522.62 -211.84,995.78 -554.34,1338.27 -342.49,342.49 -815.65,554.34 -1338.27,554.34 -450.86,0 -864.9,-157.68 -1190,-420.88 73.71,6.49 147.74,10.06 221.42,10.66 278.32,182.23 611.07,288.2 968.59,288.2 357.51,0 690.26,-105.97 968.57,-288.19l50.79 0c230.38,0.02 417.82,-187.43 417.82,-417.82l0 -30.24c209.79,-290.98 333.4,-648.21 333.4,-1034.34 0,-488.94 -198.18,-931.59 -518.59,-1252 -125.41,-125.42 -269.56,-232.1 -427.87,-315.51 -6.69,-7.36 -13.86,-14.29 -21.44,-20.73l0 -126.2zm-2129.28 3064.23c-3.9,-3.83 -7.8,-7.66 -11.67,-11.53 -183.64,-183.63 -329.69,-404.84 -425.68,-651.09 19.32,2.06 38.95,6.27 58.7,12.9 20.95,7.04 44.08,0.27 57.92,-16.97 3.3,-4.11 5.91,-8.61 7.81,-13.34 89.79,219.6 222.44,417.14 387.53,582.23 41.91,41.91 85.94,81.71 131.86,119.27 -68.22,-4.46 -136.33,-11.52 -203.77,-21.16 -0.9,-0.13 -1.8,-0.23 -2.69,-0.31zm1833.79 -3046.66c-45.7,-13.64 -92.18,-25.46 -139.34,-35.42l38.71 -48.18c22.14,-27.56 55.12,-43.37 90.48,-43.37l10.15 0 0 126.97zm638.1 3047.19c36.9,-31.32 72.5,-64.12 106.71,-98.32 16.11,-16.11 31.9,-32.55 47.39,-49.27 -32.42,65.43 -87.1,117.96 -154.09,147.6z" />
        <path
            d="M3191.99 3289.6c-32.42,65.43 -87.1,117.96 -154.09,147.6 -56.02,47.56 -115.03,91.69 -176.72,132.08l50.79 0c230.38,0.02 417.82,-187.43 417.82,-417.82l0 -30.24c-42.5,58.95 -88.53,115.19 -137.8,168.39z" />
        <path
            d="M128.65 2774.05c-13.65,-35.01 -26.29,-70.52 -37.88,-106.5 9.03,-0.27 18.1,-0.23 27.2,0.17 -26.23,-98.02 -11.41,-193.07 30.95,-271.79 22.05,125.27 57.25,246 104.16,360.71 -1.9,4.73 -4.51,9.23 -7.81,13.34 -13.84,17.24 -36.98,24.01 -57.92,16.97 -19.75,-6.63 -39.38,-10.83 -58.7,-12.9z" />
        <path
            d="M702.6 3558.6c-47.49,-38.45 -93.07,-79.14 -136.6,-121.93 0.89,0.08 1.79,0.18 2.69,0.31 67.45,9.64 135.55,16.7 203.77,21.16 48.45,39.62 99.03,76.73 151.55,111.12 -73.68,-0.6 -147.7,-4.17 -221.42,-10.66z" />
        <path
            d="M2609.98 334.85c35.73,14.16 50.68,21.36 85.3,37.59l0 126.2c7.59,6.44 14.75,13.37 21.44,20.73 -52.35,-27.58 -51.46,-23.98 -106.74,-46.3 11.68,0.38 1.32,-14.39 12.58,-12.27l-12.58 -125.95z" />
        <path
            d="M2277.27 245.04c57.22,10.33 67.22,2.66 122.53,18l0 126.97c35.67,10.64 70.85,22.39 105.53,35.19l0 -129.51c-34.73,-11.88 -69.92,-22.77 -105.53,-32.65l-10.15 0c-35.36,0 -68.34,15.81 -90.48,43.37l-38.71 48.18c-38.95,-8.23 -26.61,-7.1 -66.46,-12.73 14.78,-17.38 28.87,-34.47 69.24,-80.96 4.45,-5.54 9.14,-10.83 14.03,-15.87z" />
        <path
            d="M2008.84 197.81c41.91,2.54 83.45,6.42 124.58,11.64l-61.39 76.41c-8.96,11.14 -11.48,25.78 -7.52,38.71 -35.46,-3.41 -71.21,-5.8 -107.25,-7.09 -1.21,-34.18 9.39,-68.95 32.52,-97.72 5.55,-5.1 11.84,-12.64 19.06,-21.94z" />
    </g>
</svg>
