<?xml version="1.0" encoding="UTF-8"?>
<!DOCTYPE svg PUBLIC "-//W3C//DTD SVG 1.1//EN" "http://www.w3.org/Graphics/SVG/1.1/DTD/svg11.dtd">
<svg xmlns="http://www.w3.org/2000/svg" xml:space="preserve" width="175.097mm" height="184.128mm" version="1.1" style="shape-rendering:geometricPrecision; text-rendering:geometricPrecision; image-rendering:optimizeQuality; fill-rule:evenodd; clip-rule:evenodd" viewBox="0 0 2457.73 2584.49" xmlns:xlink="http://www.w3.org/1999/xlink">
    <g>
        <polygon points="1137.3,909.73 1226.89,909.73 1226.89,999.32 1137.3,999.32 " />
        <path d="M913.34 2074.33c-123.7,0 -223.96,100.26 -223.96,223.96 0,28.42 5.31,55.6 14.96,80.62 101.32,52.04 211.38,89.45 327.38,109.5 63.39,-39.56 105.57,-109.91 105.57,-190.12 -0.15,-123.64 -100.34,-223.81 -223.96,-223.96zm0 358.34c-74.21,0 -134.37,-60.17 -134.37,-134.37 0,-74.21 60.17,-134.38 134.37,-134.38 74.21,0 134.38,60.17 134.38,134.38 0,74.21 -60.17,134.37 -134.38,134.37z" />
        <path d="M1398.75 823.78c-7.5,-111.08 -22.05,-221.55 -43.55,-330.8 -3.72,-18.98 -7.57,-37.71 -11.72,-56.34 -1.31,-5.64 -2.3,-11.83 -3.63,-17.39 -1.57,-6.63 -3.04,-12.05 -4.48,-18.31 -2.19,-8.97 -4.48,-17.94 -6.67,-26.53 -5.12,-19.71 -10.17,-38.03 -15.18,-54.5 -0.55,-1.84 -0.98,-3.8 -1.57,-5.64l-33.02 -107.19c-16.6,-0.71 -33.28,-1.09 -50.06,-1.09 -49.5,0 -98.27,3.13 -146.12,9.2l-30.54 99.12c-32.74,111.08 -56.34,224.64 -70.6,339.57 -15.31,114.52 -23.14,229.89 -23.47,345.43l0 943.45c-179.06,-22.68 -347.05,91.36 -392.06,266.15 -6.71,26.05 -10.35,52.25 -11.17,78.17 30.28,21.95 61.68,42.45 94.08,61.42 -15.21,-79.97 6.54,-163.96 61.61,-227.01 69.35,-79.43 178.77,-110.95 279.77,-80.6 13.58,4.24 28.39,1.68 39.76,-6.87 11.37,-8.57 17.91,-22.09 17.58,-36.31l0 -890.29 89.58 89.58 0 933.42c-1.44,10.19 0.68,20.58 5.99,29.39 50.22,82.89 51.79,186.45 4.11,270.85 -14.31,25.34 -32.39,47.77 -53.31,66.74 36.72,4.29 73.98,6.84 111.68,7.58 7.57,-10.73 14.63,-21.97 21.11,-33.71 6.5,11.78 13.59,23.04 21.18,33.79 37.92,-0.62 75.39,-3.06 112.33,-7.27 -54.48,-49.18 -88.72,-120.36 -88.72,-199.53 -0.07,-60.47 -15.46,-119.92 -44.79,-172.8l0 -947c0,-11.87 -4.72,-23.27 -13.12,-31.67l-165.74 -165.74c1.03,-105.51 8.51,-210.86 22.4,-315.47 13.58,-109.11 35.93,-216.96 66.88,-322.49l0 387.45c0,11.87 4.72,23.27 13.12,31.67l164.3 164.3c1.03,24.71 1.75,49.28 1.75,72.79l0 1041.85c0,16.69 9.27,32 24.08,39.72 14.78,7.7 32.65,6.56 46.32,-2.97 44.99,-31.56 98.62,-48.45 153.56,-48.38l0 0c148.42,0 268.75,120.31 268.75,268.75 0,18.15 -1.81,35.87 -5.24,53.01 32.71,-18.93 64.4,-39.44 94.97,-61.4 -1.06,-46.81 -11.33,-94.15 -31.79,-139.4 -79.28,-175.25 -282.79,-256.68 -461.06,-184.44l0 -966.75c0,-30.42 -0.5,-62.14 -2.29,-93.52l0 -0.28c-1.12,-25.44 -2.91,-53.12 -5.01,-81.73l-0 0.01zm-144.49 -696.74l-29.34 -95.24c-1.6,-4.86 -4.02,-9.41 -7.17,-13.43 -0.68,-0.9 -1.57,-1.53 -2.27,-2.34 -2.62,-3.04 -5.64,-5.75 -8.97,-8.01 -0.9,-0.55 -1.84,-0.9 -2.78,-1.44 -3.43,-1.97 -7.11,-3.48 -10.94,-4.48 -1.42,-0.35 -2.82,-0.44 -4.46,-0.66 -2.06,-0.63 -4.13,-1.12 -6.23,-1.44 -1.31,0 -2.47,0.55 -3.72,0.63 -1.25,0.09 -1.92,-0.28 -2.91,0 -0.98,0.26 -2.17,0.85 -3.33,1.11 -2.95,0.68 -5.82,1.66 -8.55,2.95 -1.84,0.79 -3.63,1.71 -5.34,2.78 -2.52,1.64 -4.86,3.54 -6.98,5.69 -1.44,1.29 -2.78,2.67 -4.05,4.13 -1.86,2.45 -3.43,5.12 -4.7,7.92 -0.98,1.66 -1.86,3.39 -2.58,5.2 0,0.48 -0.55,0.85 -0.68,1.33l-31.09 100.88c39.7,-3.87 79.96,-5.87 120.68,-5.87 8.49,0 16.95,0.11 25.4,0.28zm-27.38 215.94c1.71,5.6 3.46,12.14 5.18,18.13 2.73,9.41 5.47,18.77 8.03,28.43 1.92,7.35 3.98,15.86 5.95,23.75 29.31,124.36 49.43,250.73 60.21,378.04l-79.37 -79.33 0 -369.03z" />
        <path d="M1316.47 2298.29c0,80.57 42.56,151.2 106.42,190.66 115.27,-19.59 224.69,-56.34 325.55,-107.53 10.28,-25.7 15.95,-53.75 15.95,-83.13 0,-123.7 -100.28,-223.96 -223.96,-223.96 -123.64,0.15 -223.81,100.32 -223.96,223.96zm223.96 -134.38c74.21,0 134.37,60.17 134.37,134.38 0,74.21 -60.17,134.37 -134.37,134.37 -74.21,0 -134.38,-60.17 -134.38,-134.37 0,-74.21 60.17,-134.38 134.38,-134.38z" />
        <path d="M1278.92 207.08l-24.66 -80.04c-8.45,-0.17 -16.91,-0.28 -25.4,-0.28 -40.72,0 -80.97,2 -120.68,5.87l-25.44 82.56c47.85,-6.07 96.62,-9.2 146.12,-9.2 16.77,0 33.46,0.38 50.06,1.09zm-724.01 2080.01c-1.12,35.54 3.08,70.59 12.11,104.12 43.76,28.03 89.43,53.34 136.74,75.74 -13.95,-17.31 -25.88,-36.51 -35.36,-57.34 -9.02,-19.8 -15.46,-40.32 -19.42,-61.1 -32.4,-18.97 -63.8,-39.47 -94.08,-61.42zm578.58 293.75c27.25,-21.23 51.69,-46.64 72.28,-75.83 -37.7,-0.74 -74.95,-3.29 -111.68,-7.58 -32.67,29.64 -72.25,50.86 -115.23,61.6 50.48,10.43 102.09,17.78 154.62,21.81zm114.57 -75.75c20.71,29.33 45.24,54.79 72.57,76.01 53.08,-3.92 105.23,-11.2 156.22,-21.65 -44.06,-10.69 -83.88,-32.23 -116.45,-61.64 -36.94,4.21 -74.42,6.65 -112.33,7.27zm637.75 -110.79c9.41,-33.74 13.9,-68.92 13.1,-104.4 -30.57,21.96 -62.26,42.47 -94.97,61.4 -8.94,44.64 -28.92,85.28 -57,118.96 48.06,-22.38 94.43,-47.79 138.87,-75.96z" />
        <path d="M1422.89 2488.94c34.17,21.11 74.43,33.3 117.54,33.3 94.31,0 175,-58.31 208.01,-140.83 -100.86,51.18 -210.28,87.94 -325.55,107.53z" />
        <path d="M1228.87 126.76c339.34,0 646.56,137.55 868.94,359.93 222.38,222.38 359.93,529.6 359.93,868.94 0,339.34 -137.55,646.56 -359.93,868.94 -222.38,222.38 -529.6,359.93 -868.94,359.93 -339.34,0 -646.56,-137.55 -868.94,-359.93 -222.38,-222.38 -359.93,-529.6 -359.93,-868.94 0,-339.34 137.55,-646.56 359.93,-868.94 222.38,-222.38 529.6,-359.93 868.94,-359.93zm812.92 415.95c-208.04,-208.04 -495.45,-336.72 -812.92,-336.72 -317.47,0 -604.88,128.68 -812.92,336.72 -208.04,208.04 -336.72,495.45 -336.72,812.92 0,317.47 128.68,604.88 336.72,812.92 208.04,208.04 495.45,336.72 812.92,336.72 317.47,0 604.88,-128.68 812.92,-336.72 208.04,-208.04 336.72,-495.45 336.72,-812.92 0,-317.47 -128.68,-604.88 -336.72,-812.92z" />
    </g>
</svg>
