<?xml version="1.0" encoding="UTF-8"?>
<!DOCTYPE svg PUBLIC "-//W3C//DTD SVG 1.1//EN" "http://www.w3.org/Graphics/SVG/1.1/DTD/svg11.dtd">
<!-- Creator: CorelDRAW 2019 (64-Bit) -->
<svg xmlns="http://www.w3.org/2000/svg" xml:space="preserve" width="174.978mm" height="174.978mm" version="1.1"
    style="shape-rendering:geometricPrecision; text-rendering:geometricPrecision; image-rendering:optimizeQuality; fill-rule:evenodd; clip-rule:evenodd"
    viewBox="0 0 1439.33 1439.33" xmlns:xlink="http://www.w3.org/1999/xlink">
    <g>
        <path d="M1067.89 208.94l0 208.93 46.43 0 0 -69.64 46.43 0c38.39,0 69.65,-31.25 69.65,-69.65 0,-38.39 -31.25,-69.65 -69.65,-69.65l-92.86 0zm116.08 69.65c0,12.79 -10.43,23.21 -23.21,23.21l-46.43 0 0 -46.43 46.43 -0c12.79,0 23.21,10.43 23.21,23.21l0 0zm0 0z" />
        <path d="M1137.53 510.73c46.69,0 90.93,-15.22 128.01,-44.02l-28.49 -36.66c-28.84,22.41 -63.26,34.24 -99.53,34.24 -89.61,0 -162.5,-72.9 -162.5,-162.5 0,-36.26 11.83,-70.69 34.24,-99.53l-36.66 -28.49c-28.79,37.08 -44.02,81.32 -44.02,128.01 0,115.19 93.74,208.93 208.93,208.93zm0 0z" />
        <path d="M1137.53 139.29c89.61,0 162.51,72.9 162.51,162.51 0,36.26 -11.83,70.69 -34.24,99.52l36.66 28.49c28.79,-37.08 44.02,-81.32 44.02,-128.01 0,-115.19 -93.74,-208.94 -208.94,-208.94 -46.69,0 -90.93,15.22 -128.01,44.02l28.49 36.66c28.84,-22.41 63.26,-34.24 99.52,-34.24zm0 0z" />
        <path d="M1439.33 301.8c0,-166.4 -135.39,-301.8 -301.8,-301.8 -59.39,0 -114.63,17.48 -161.39,47.2 -81.81,-31.23 -168.05,-47.2 -256.48,-47.2 -396.81,0 -719.67,322.86 -719.67,719.67 0,78.53 12.54,155.4 37.21,228.97 -22.4,11.89 -37.21,35.39 -37.21,61.43l0 104.26c0,38.39 31.25,69.65 69.65,69.65l71.99 0c10.79,52.9 57.66,92.86 113.73,92.86l8.99 -0c128.11,104.8 289.39,162.51 455.31,162.51 396.81,0 719.67,-322.86 719.67,-719.67 0,-88.43 -15.9,-174.74 -47.14,-256.6 29.69,-46.7 47.14,-101.93 47.14,-161.27l0 0zm-46.43 0c0,140.8 -114.57,255.36 -255.36,255.36 -140.8,0 -255.36,-114.57 -255.36,-255.36 0,-140.8 114.57,-255.36 255.36,-255.36 140.8,0 255.36,114.57 255.36,255.36zm-278.58 742.88l0 -442.26c7.69,0.6 15.37,1.18 23.21,1.18 7.84,0 15.53,-0.58 23.21,-1.18l0 442.26 -46.43 0zm-394.65 -998.25c73.08,0 144.54,11.63 212.95,34.45 -59.43,55.14 -96.87,133.66 -96.87,220.92 0,142.4 99.26,261.79 232.15,293.37l0 449.51 -46.43 0 0 185.72 -209.54 0c10.26,-13.56 17.94,-29.18 21.45,-46.43l72.01 0c38.39,0 69.65,-31.25 69.65,-69.65l0 -104.26c0,-30.92 -20.78,-58.47 -50.51,-66.97l-113.25 -32.36c-5.01,-1.44 -9.44,-4.55 -12.48,-8.82l-92.77 -129.87c-13.05,-18.24 -34.24,-29.15 -56.67,-29.15l-323.67 0c-22.42,0 -43.62,10.92 -56.67,29.15l-92.75 129.87c-3.04,4.27 -7.49,7.4 -12.53,8.84l-82.35 23.54c-23.19,-68.95 -34.96,-140.99 -34.96,-214.63 0,-371.24 302,-673.24 673.24,-673.24l-0 0zm-350.57 1137.54l236.84 0c3.53,17.25 11.19,32.87 21.45,46.43l-279.76 0c10.28,-13.56 17.94,-29.18 21.47,-46.43zm280.93 -23.22c0,-38.39 31.25,-69.65 69.65,-69.65 38.39,0 69.65,31.25 69.65,69.65 0,38.39 -31.25,69.65 -69.65,69.65 -38.39,0 -69.65,-31.25 -69.65,-69.65zm-69.64 116.08l0 46.43 -139.29 0 0 -46.43 139.29 -0zm46.43 0l185.72 0 0 46.43 -185.72 0 0 -46.43zm232.15 0l139.29 0 0 46.43 -139.29 0 0 -46.43zm185.72 0l52.46 0c-16.95,11.52 -34.47,22.22 -52.46,32.18l0 -32.18zm-903.04 -139.29l-71.99 0c-12.79,0 -23.21,-10.43 -23.21,-23.21l0 -104.26c0,-10.3 6.91,-19.5 16.86,-22.33l113.2 -32.34c15.09,-4.32 28.42,-13.69 37.57,-26.5l92.74 -129.85c4.36,-6.08 11.43,-9.73 18.9,-9.73l323.65 0c7.47,0 14.53,3.65 18.87,9.7l92.76 129.87c9.15,12.79 22.48,22.18 37.54,26.48l113.22 32.36c9.96,2.83 16.88,12 16.88,22.33l0 104.26c0,12.79 -10.43,23.21 -23.21,23.21l-71.99 0c-10.79,-52.9 -57.66,-92.86 -113.73,-92.86 -56.07,0 -102.94,39.96 -113.73,92.86l-95.21 0 0 -46.43 -46.43 0 0 46.43 -95.21 0c-10.79,-52.9 -57.66,-92.86 -113.73,-92.86 -56.07,0 -102.94,39.96 -113.73,92.86l0 0zm44.08 23.21c0,-38.39 31.25,-69.65 69.65,-69.65 38.39,0 69.65,31.25 69.65,69.65 0,38.39 -31.25,69.65 -69.65,69.65 -38.39,0 -69.65,-31.25 -69.65,-69.65zm208.93 116.08l0 31.94c-17.88,-9.86 -35.35,-20.47 -52.32,-31.94l52.32 0zm149.99 92.86l350.04 0c-55.86,15.04 -114.5,23.21 -175.02,23.21 -59.48,0 -118.31,-7.93 -175.02,-23.21zm612.92 -139.29l-89.67 0 0 -139.29 139.29 0 0 92.15c-15.74,16.53 -32.29,32.26 -49.62,47.14l0 -0zm235.34 -510.73c0,153.91 -52.05,295.86 -139.29,409.37l0 -84.36 -46.43 0 0 -449.51c59.06,-14.02 111.34,-45.39 151.34,-88.5 22.82,68.41 34.38,139.91 34.38,212.99zm0 0z" />
        <path d="M232.15 1137.53l46.43 0 0 46.43 -46.43 0 0 -46.43zm0 0z" />
        <path d="M696.45 1137.53l46.43 0 0 46.43 -46.43 0 0 -46.43zm0 0z" />
        <path d="M464.3 1044.68l46.43 0 0 -69.65 208.94 0 -104.47 -139.29 -255.36 0 -104.47 139.29 208.93 0 0 69.65zm-81.25 -162.5l208.94 0 34.82 46.43 -278.58 0 34.82 -46.43zm0 0z" />
    </g>
</svg>
