<?xml version="1.0" encoding="utf-8"?>
<!-- Generator: Adobe Illustrator 22.0.1, SVG Export Plug-In . SVG Version: 6.00 Build 0)  -->
<svg version="1.1" id="Layer_1" xmlns="http://www.w3.org/2000/svg" xmlns:xlink="http://www.w3.org/1999/xlink" x="0px" y="0px"
	 viewBox="0 0 829 829" style="enable-background:new 0 0 829 829;" xml:space="preserve">
<g>
	<path style="fill:#FFFFFF;" d="M345,0c46,0,93,0,139,0c21,0,37,17,37,37c0,90,0,180,0,270c90,0,181,0,271,0c20,0,37,17,37,38
		c0,46,0,93,0,139c0,21-17,37-37,37c-90,0-181,0-271,0c0,90,0,181,0,271c0,20-16,37-37,37c-46,0-93,0-139,0c-21,0-38-17-38-37
		c0-90,0-181,0-271c-90,0-180,0-270,0c-20,0-37-16-37-37c0-46,0-93,0-139c0-21,17-38,37-38c90,0,180,0,270,0c0-90,0-180,0-270
		C307,17,324,0,345,0z"/>
</g>
</svg>
