<?xml version="1.0" encoding="UTF-8"?>
<!DOCTYPE svg PUBLIC "-//W3C//DTD SVG 1.1//EN" "http://www.w3.org/Graphics/SVG/1.1/DTD/svg11.dtd">
<svg xmlns="http://www.w3.org/2000/svg" xml:space="preserve" width="175.097mm" height="175.385mm" version="1.1"
    style="shape-rendering:geometricPrecision; text-rendering:geometricPrecision; image-rendering:optimizeQuality; fill-rule:evenodd; clip-rule:evenodd"
    viewBox="0 0 8713.26 8727.6" xmlns:xlink="http://www.w3.org/1999/xlink">
    <g id="Layer_x0020_1">
        <path
            d="M4624.23 2225.81c-693.19,462.06 -1381.19,20.26 -1412.08,-0.06 -59.57,-39.57 -139.97,-23.36 -179.6,36.15 -39.63,59.57 -23.55,139.9 35.89,179.66 264.17,162.7 567.6,250.5 877.79,254.17 293.29,-0.13 579.69,-88.69 821.83,-254.17 58.81,-40 74.45,-119.96 34.95,-179.15 -39.44,-59.19 -119.2,-75.52 -178.78,-36.59l0 -0zm0 0z" />
        <path
            d="M8051.57 6093.5l-1540.34 0 0 -2283.54c114.52,-123.7 171.87,-289.81 157.95,-457.82 -26.39,-318.8 -297.03,-605.39 -466.3,-755.29 415.09,-386.86 214.86,-1044.66 31.97,-1364.67 -23.74,-41.53 -68.37,-66.6 -116.17,-65.27 -47.79,1.33 -90.97,28.87 -112.36,71.6 -286.14,572.22 -2156.62,517.08 -2853.04,447.57 -18.23,-1.9 -36.59,0.13 -53.93,6.01 -1241.23,413.76 -1255.47,2000.38 -1255.47,2067.74l0 3111.57c0.57,500.99 406.55,906.97 907.54,907.54l3841.55 0c121.99,-80.21 239.4,-166.82 351.79,-259.3l-1859.67 0c-357.86,-0.44 -647.8,-290.38 -648.24,-648.24l3138.57 0c65.25,-83.89 127.34,-170.36 186,-259.3l-3324.58 0 0 -259.3 3482.08 -0c47.18,-84.63 91.45,-171.09 132.64,-259.29zm-5948.4 -2204.03l4148.76 0 0 518.59 -4148.76 0 0 -518.59zm1052.7 -1942.64c348.93,33.24 2296.84,187.7 2938.43,-404.71 100.78,255.05 210.68,712.25 -168.39,939.7 -37.48,22.54 -61.09,62.36 -62.8,106.03 -1.71,43.68 18.61,85.27 54.19,110.66 129.33,92.36 470.17,393.76 493.46,675.02 7.47,93.69 -23.62,186.44 -86.16,256.64l-4214.22 0c30.96,-362.86 193.65,-1380.5 1045.48,-1683.34zm-404.46 5572.81c-357.86,-0.44 -647.8,-290.38 -648.24,-648.24l0 -2204.03 4148.76 0 0 1426.14 -1944.74 0c-71.6,0 -129.65,58.05 -129.65,129.65l0 648.25c-0.06,244.16 98.63,477.95 273.6,648.24l-1699.74 0z" />
        <path
            d="M6770.53 1166.84c0,71.6 58.05,129.65 129.65,129.65 71.6,0 129.65,-58.05 129.65,-129.65 0.25,-214.73 174.22,-388.69 388.95,-388.95 71.6,0 129.65,-58.05 129.65,-129.65 0,-71.6 -58.05,-129.65 -129.65,-129.65 -214.73,-0.25 -388.69,-174.22 -388.95,-388.95 0,-71.6 -58.05,-129.65 -129.65,-129.65 -71.59,0 -129.65,58.05 -129.65,129.65 -0.25,214.73 -174.22,388.7 -388.95,388.95 -71.6,0 -129.65,58.05 -129.65,129.65 0,71.59 58.05,129.65 129.65,129.65 214.73,0.25 388.69,174.22 388.95,388.95zm129.65 -648.62c37.04,49.25 80.78,92.99 130.03,130.03 -49.25,37.03 -92.99,80.77 -130.03,130.03 -37.03,-49.25 -80.78,-93 -130.03,-130.03 49.25,-37.04 93,-80.78 130.03,-130.03zm0 0z" />
        <path
            d="M4356.63 14.34c735.46,0 1428.35,182.27 2035.99,504.07 -3.66,0.1 -7.34,0.17 -11.03,0.18 -71.6,0 -129.65,58.05 -129.65,129.65 0,71.59 58.05,129.65 129.65,129.65 184.63,0.22 339.12,128.86 378.97,301.42 -673.93,-493.01 -1504.93,-784.09 -2403.92,-784.09 -1125.5,0 -2144.44,456.19 -2882,1193.75 -737.56,737.55 -1193.75,1756.5 -1193.75,2882 0,1125.5 456.19,2144.44 1193.75,2882 737.55,737.56 1756.5,1193.75 2882,1193.75 1125.5,0 2144.44,-456.19 2882,-1193.75 737.56,-737.55 1193.75,-1756.5 1193.75,-2882 0,-1125.5 -456.19,-2144.44 -1193.75,-2882 -79.62,-79.62 -162.53,-155.94 -248.49,-228.79 24.46,-23.58 39.69,-56.68 39.69,-93.34 0.08,-70.97 19.16,-137.48 52.39,-194.75 124.08,99.63 242.61,205.89 355,318.29 788.4,788.39 1276.04,1877.56 1276.04,3080.59 0,1203.03 -487.64,2292.2 -1276.04,3080.59 -788.39,788.4 -1877.56,1276.04 -3080.59,1276.04 -1203.03,0 -2292.2,-487.64 -3080.59,-1276.04 -788.4,-788.39 -1276.04,-1877.56 -1276.04,-3080.59 0,-1203.03 487.64,-2292.2 1276.04,-3080.59 788.39,-788.4 1877.56,-1276.04 3080.59,-1276.04z" />
    </g>
</svg>
