<svg id="regular" enable-background="new 0 0 24 24" height="512" viewBox="0 0 24 24" width="512" xmlns="http://www.w3.org/2000/svg">
    <path d="m19.195 15.246-2.663 2.929-1.262-1.215c-.298-.286-.772-.277-1.061.021-.287.298-.278.773.021 1.061l1.818 1.75c.14.135.326.209.52.209h.025c.203-.007.394-.095.53-.245l3.182-3.5c.278-.307.256-.781-.051-1.06-.305-.279-.779-.258-1.059.05z" />
    <path d="m17.5 11c-3.584 0-6.5 2.916-6.5 6.5s2.916 6.5 6.5 6.5 6.5-2.916 6.5-6.5-2.916-6.5-6.5-6.5zm0 11.5c-2.757 0-5-2.243-5-5s2.243-5 5-5 5 2.243 5 5-2.243 5-5 5z" />
    <path d="m4.574 12.81-1.031 6.32c-.046.283.074.568.308.734.129.09.28.136.432.136.125 0 .25-.031.363-.094l4.717-2.607c.363-.2.494-.657.293-1.019-.201-.363-.659-.493-1.019-.293l-3.365 1.86.843-5.169c.038-.235-.037-.474-.204-.645l-3.605-3.696 4.949-.756c.247-.038.459-.196.565-.422l2.18-4.644 2.18 4.644c.106.226.318.385.565.422l4.949.756-.308.315c-.29.296-.284.771.013 1.061s.771.284 1.061-.013l1.328-1.36c.196-.201.264-.496.175-.762s-.32-.46-.598-.503l-5.996-.917-2.688-5.728c-.247-.526-1.11-.526-1.357 0l-2.691 5.729-5.996.916c-.278.043-.509.237-.598.503-.089.267-.022.561.174.762z" />
</svg>
