<?xml version="1.0" encoding="UTF-8"?>
<!DOCTYPE svg PUBLIC "-//W3C//DTD SVG 1.1//EN" "http://www.w3.org/Graphics/SVG/1.1/DTD/svg11.dtd">
<svg xmlns="http://www.w3.org/2000/svg" xml:space="preserve" width="175.097mm" height="184.128mm" version="1.1" style="shape-rendering:geometricPrecision; text-rendering:geometricPrecision; image-rendering:optimizeQuality; fill-rule:evenodd; clip-rule:evenodd" viewBox="0 0 1801.81 1894.74" xmlns:xlink="http://www.w3.org/1999/xlink">
    <g>
        <path d="M957.24 94.67c226.34,13.97 430.07,111.5 580.7,262.13 163.03,163.03 263.87,388.26 263.87,637.03 0,248.77 -100.84,474 -263.87,637.03 -163.03,163.03 -388.26,263.87 -637.03,263.87 -248.77,0 -474,-100.84 -637.03,-263.87 -163.03,-163.03 -263.87,-388.26 -263.87,-637.03 0,-248.77 100.84,-474 263.87,-637.03 150.54,-150.55 354.13,-248.05 580.3,-262.11l0 58.21c-210.14,13.97 -399.21,104.94 -539.24,244.96 -152.52,152.52 -246.85,363.23 -246.85,595.97 0,232.74 94.34,443.45 246.85,595.97 152.52,152.52 363.23,246.85 595.97,246.85 232.74,0 443.45,-94.34 595.97,-246.85 152.52,-152.52 246.85,-363.23 246.85,-595.97 0,-232.74 -94.34,-443.45 -246.85,-595.97 -140.11,-140.11 -329.34,-231.11 -539.63,-244.99l0 -58.21z" />
        <rect x="872.44" y="598.12" width="56.53" height="282.65" />
        <path d="M1437.74 942.73c0,-6.16 -0.54,-12.18 -0.93,-18.26l264.82 -93.59 -172.62 -103.56 74.61 -198.97c-9.74,-14.68 -19.93,-29.03 -30.55,-43.05l-434.71 170.11c-33.18,1.3 -65.72,8.2 -96.33,20.55l0 -190.9 282.65 0c62.35,0 113.06,-50.71 113.06,-113.06l0 -27.93c-35.8,-29.61 -74.09,-56.31 -114.5,-79.76 -32.15,12.07 -55.09,43.11 -55.09,79.42l0 28.26 56.53 0 0 -28.26c0,-15.57 12.66,-28.27 28.27,-28.27 15.6,0 28.26,12.69 28.26,28.27l0 28.26c0,31.18 -25.35,56.53 -56.53,56.53l-282.65 0 -28.26 0 0 -270.01c-18.66,-2.5 -37.51,-4.38 -56.53,-5.64l0 275.66 -113.06 0 0 -275.63c-19.02,1.27 -37.87,3.16 -56.53,5.67l0 269.96 -28.27 0 -282.65 0c-62.35,0 -113.06,50.71 -113.06,113.06l0 28.26c0,46.75 38.04,84.8 84.8,84.8 46.75,0 84.8,-38.04 84.8,-84.8l0 -28.26 -56.53 0 0 28.26c0,15.57 -12.66,28.27 -28.26,28.27 -15.6,0 -28.27,-12.69 -28.27,-28.27l0 -28.26c0,-31.18 25.35,-56.53 56.53,-56.53l282.65 0 0 190.93c-34.12,-13.77 -70.52,-21.34 -107.63,-21.34 -158.85,0 -288.08,129.23 -288.08,288.08 0,5.2 0.31,10.4 0.59,15.57l-113.65 44.49 0 330.22 302.83 0 -354.4 127.58c10.88,16.33 22.32,32.26 34.28,47.76l423.99 -152.64 102.06 102.06 0 115.24 -320.9 125.57c19.89,13.07 40.36,25.33 61.37,36.72l259.54 -101.57 0 16 79.14 184.64c20.6,1.51 41.4,2.29 62.38,2.29 20.85,0 41.51,-0.77 61.98,-2.26l79.15 -184.67 0 -126.6 508.77 -199.07 0 -330.22 -117.81 0c3.05,-16.82 4.75,-33.89 4.75,-51.1zm-423.98 -842.79l0 -99.94 -226.12 0 0 99.99c18.67,-2.34 37.52,-4.11 56.53,-5.3l0 -38.16 113.06 0 0 38.14c19.01,1.18 37.86,2.94 56.53,5.27zm516.57 462.82l-70.8 188.81 110.04 66.03 -142.06 50.23c-24.36,-90.28 -91.46,-162.92 -178.3,-195.06l281.12 -110.01zm-488.31 175.58c33.18,-17.5 69.93,-27.16 107.63,-27.16 127.67,0 231.55,103.87 231.55,231.55 0,17.3 -2.6,34.31 -6.42,51.1l-332.76 0 0 -255.49zm-226.12 -253.28l169.59 0 0 508.77 -56.53 0 0 -56.53 -56.53 0 0 56.53 -56.53 0 0 -508.77zm-164.16 226.12c37.68,0 74.42,9.7 107.63,27.16l0 255.49 -332.76 0c-3.82,-16.76 -6.42,-33.78 -6.42,-51.1 0,-127.67 103.87,-231.55 231.55,-231.55zm220.69 1058.87l-56.53 -131.91 0 -123.83 56.53 56.53 0 199.21zm113.06 -131.91l-56.53 131.91 0 -199.21 56.53 -56.53 0 123.83zm-84.8 -118.97l-186.15 -186.15 372.31 0 -186.15 186.15zm141.33 -56.76l0 -4.64 124.76 -124.76 205.94 0 -330.7 129.4zm452.24 -412.05l0 226.12 -1187.13 0 0 -226.12 1187.13 0z" />
        <path d="M787.65 99.99l0 58.58c18.66,-2.51 37.51,-4.4 56.53,-5.67l0 -58.21c-19.01,1.18 -37.86,2.95 -56.53,5.3z" />
        <path d="M1013.77 158.52l0 -58.58c-18.67,-2.33 -37.52,-4.1 -56.53,-5.27l0 58.21c19.02,1.26 37.87,3.15 56.53,5.64z" />
        <path d="M1437.74 344.08l0 -0.34c0,-46.75 -38.04,-84.8 -84.8,-84.8 -10.45,0 -20.46,1.9 -29.7,5.38 40.41,23.45 78.7,50.15 114.5,79.76z" />
        <path d="M1603.62 528.36l24.17 -64.46 -54.73 21.42c10.62,14.02 20.81,28.37 30.55,43.05z" />
    </g>
</svg>
