<?xml version="1.0" encoding="UTF-8"?>
<!DOCTYPE svg PUBLIC "-//W3C//DTD SVG 1.1//EN" "http://www.w3.org/Graphics/SVG/1.1/DTD/svg11.dtd">
<svg xmlns="http://www.w3.org/2000/svg" xml:space="preserve" width="176.09mm" height="184.218mm" version="1.1"
    style="shape-rendering:geometricPrecision; text-rendering:geometricPrecision; image-rendering:optimizeQuality; fill-rule:evenodd; clip-rule:evenodd"
    viewBox="0 0 1218.6 1274.84" xmlns:xlink="http://www.w3.org/1999/xlink">
    <g>
        <path d="M1217.03 622.04c-15.08,-210.38 -137.98,-397.98 -324.84,-495.81l0 -60.95c-0.04,-36.04 -29.24,-65.24 -65.28,-65.28l-522.24 0c-36.04,0.04 -65.24,29.24 -65.28,65.28l0 116.63c-207.59,158.53 -290.96,431.79 -207.21,679.2 83.74,247.41 315.94,413.86 577.13,413.72l2.76 0 0.07 0.01 0.06 -0.01 0.04 0c126.31,-0.27 249.36,-40.13 351.83,-113.98 0.75,-0.53 1.46,-1.11 2.12,-1.74 171,-123.48 265.9,-326.68 250.83,-537.06zm-1142.38 228.76c-75.71,-218.73 -10.44,-461.52 164.74,-612.81l0 666.92c0.04,36.04 29.24,65.24 65.28,65.28l271.34 0c-14.06,86.48 -11.7,174.84 6.96,260.45 -231.22,-10.62 -432.61,-161.11 -508.32,-379.84zm513.77 -32.93l-44.39 0 0 -43.52c0,-5.77 -2.29,-11.31 -6.37,-15.39 -4.08,-4.08 -9.62,-6.37 -15.39,-6.37 -5.77,-0 -11.31,2.29 -15.39,6.37 -4.08,4.08 -6.37,9.62 -6.37,15.39l0 43.52 -43.52 0 0 -21.76c0,-12.02 -9.74,-21.76 -21.76,-21.76 -12.02,0 -21.76,9.74 -21.76,21.76l0 21.76 -43.52 0 0 -108.8 218.47 0 0 108.8 0 0zm0 -152.32l-218.47 0c-24.02,0.03 -43.49,19.5 -43.52,43.52l0 108.8c0.03,24.02 19.5,43.49 43.52,43.52l218.47 0 0 40.94c-0.95,4.02 -2.86,12.61 -5.12,24.34l-278.63 0c-12.01,-0.01 -21.75,-9.75 -21.76,-21.76l0 -839.64c0.01,-12.01 9.75,-21.75 21.76,-21.76l522.24 0c12.01,0.01 21.75,9.75 21.76,21.76l0 823.47c-1.79,16.36 -12.92,30.2 -28.52,35.47 -1.08,0.24 -2.13,0.56 -3.17,0.96 -0.28,0.1 -2.55,0.51 -2.82,0.62 -2.88,0.58 -5.81,0.87 -8.75,0.88 -11.32,-0.2 -22.12,-4.78 -30.13,-12.77 -8.2,-8.13 -12.8,-19.2 -12.77,-30.75l0 -217.6c0,-48.07 -38.97,-87.04 -87.04,-87.04 -48.07,0 -87.04,38.96 -87.04,87.04zm344.28 464c-89.52,62.71 -195.44,97.84 -304.68,101.07 -28.82,-100.13 -15.89,-216.3 -5.09,-278.56 4.34,-25.68 8.33,-41.71 8.35,-41.87 0.44,-1.73 0.66,-3.5 0.66,-5.28l0 -239.36c0,-24.04 19.48,-43.52 43.52,-43.52 24.04,0 43.52,19.48 43.52,43.52l0 21.76 0 195.84c-0.05,23.1 9.14,45.25 25.52,61.53 16.15,16.04 37.89,25.18 60.65,25.51 5.34,0.05 10.67,-0.44 15.92,-1.47 3.3,-0.41 6.55,-1.16 9.69,-2.26 0.3,-0.07 0.59,-0.15 0.89,-0.24 36.67,-10.95 61.69,-44.8 61.41,-83.07l0 -274.9c39.23,64.52 95.24,169.81 107.01,261.34 2.23,19.2 -0.36,38.65 -7.54,56.6l-59.83 203.38zm59.35 -47.69l41.64 -141.72c9.43,-24.18 12.71,-50.33 9.56,-76.1 -18.42,-143.04 -130.42,-307.85 -151.07,-337.22l0 -351.14c175.52,100.54 283.53,287.59 282.88,489.86 -0.21,158.24 -66.56,309.18 -183.01,416.32z" />
        <path d="M565.79 101.95c-36.05,0 -65.28,29.23 -65.28,65.28 0.04,36.04 29.24,65.24 65.28,65.28 36.05,0 65.28,-29.23 65.28,-65.28 0,-36.05 -29.23,-65.28 -65.28,-65.28zm0 87.04c-12.02,0 -21.76,-9.74 -21.76,-21.76 0.01,-12.01 9.75,-21.75 21.76,-21.76 12.02,0 21.76,9.74 21.76,21.76 0,12.02 -9.74,21.76 -21.76,21.76z" />
        <path d="M496.95 295.81c-7.7,1.3 -14.11,6.62 -16.81,13.95l-44.9 119.74 -44.9 -119.74c-2.69,-7.33 -9.11,-12.65 -16.81,-13.95 -7.7,-1.3 -15.5,1.63 -20.45,7.66 -4.95,6.04 -6.28,14.26 -3.5,21.56l65.28 174.08c3.19,8.49 11.31,14.12 20.38,14.12 9.07,0 17.19,-5.62 20.38,-14.12l65.28 -174.08c2.78,-7.29 1.45,-15.52 -3.5,-21.56 -4.95,-6.04 -12.75,-8.96 -20.45,-7.66z" />
        <path d="M587.55 295.64c-5.77,-0 -11.31,2.29 -15.39,6.37 -4.08,4.08 -6.37,9.62 -6.37,15.39l0 174.08c0,12.02 9.74,21.76 21.76,21.76 12.02,0 21.76,-9.74 21.76,-21.76l0 -174.08c0,-5.77 -2.29,-11.31 -6.37,-15.39 -4.08,-4.08 -9.61,-6.37 -15.38,-6.37z" />
        <path d="M674.59 513.23c5.77,0 11.31,-2.29 15.39,-6.37 4.08,-4.08 6.37,-9.62 6.37,-15.39l0 -65.28 21.76 0c36.05,0 65.28,-29.23 65.28,-65.28 0,-36.05 -29.23,-65.28 -65.28,-65.28l-43.52 0c-5.77,-0 -11.31,2.29 -15.39,6.37 -4.08,4.08 -6.37,9.62 -6.37,15.39l0 174.08c-0,5.77 2.29,11.31 6.37,15.39 4.08,4.08 9.62,6.37 15.39,6.37zm21.76 -174.08l21.76 0c12.02,0 21.76,9.74 21.76,21.76 0,12.02 -9.74,21.76 -21.76,21.76l-21.76 0 0 -43.52z" />
    </g>
</svg>
