<?xml version="1.0" encoding="UTF-8"?>
<!DOCTYPE svg PUBLIC "-//W3C//DTD SVG 1.1//EN" "http://www.w3.org/Graphics/SVG/1.1/DTD/svg11.dtd">
<svg xmlns="http://www.w3.org/2000/svg" xml:space="preserve" width="225.593mm" height="127.665mm" version="1.1" style="shape-rendering:geometricPrecision; text-rendering:geometricPrecision; image-rendering:optimizeQuality; fill-rule:evenodd; clip-rule:evenodd" viewBox="0 0 3407.89 1928.55" xmlns:xlink="http://www.w3.org/1999/xlink">
    <g>
        <path
            d="M2932.97 1226.26c113.05,110.37 232.36,214.21 333.75,335.71 44.79,53.99 87.19,109.71 119.63,172.36 45.96,89.07 4.33,187.09 -75.53,192.41l-496.47 -0.22c-128.05,10.63 -230.2,-40.92 -316.09,-128.47 -68.74,-70.01 -132.39,-144.53 -198.49,-216.91 -27.1,-29.58 -55.46,-57.42 -89.34,-79.42 -67.77,-43.99 -126.6,-30.52 -165.33,40.16 -39.45,71.89 -48.39,151.5 -52.27,231.63 -5.32,116.91 -40.66,147.64 -158.09,153 -250.97,11.83 -489.15,-26.13 -710.41,-152.74 -195.07,-111.61 -346.34,-269.17 -478,-447.55 -256.35,-347.34 -452.67,-729.01 -629.11,-1121.37 -39.71,-88.4 -10.67,-135.85 86.87,-137.53 161.96,-3.15 323.9,-2.92 486.06,-0.22 65.83,0.96 109.4,38.72 134.82,100.91 87.63,215.46 194.85,420.45 329.43,610.47 35.84,50.59 72.39,101.17 124.43,136.78 57.57,39.42 101.41,26.36 128.49,-37.78 17.19,-40.67 24.71,-84.47 28.59,-128.02 12.83,-149.85 14.52,-299.44 -7.98,-448.76 -13.82,-93.19 -66.31,-153.52 -159.3,-171.15 -47.45,-8.99 -40.39,-26.65 -17.41,-53.73 39.9,-46.71 77.44,-75.79 152.25,-75.79l561.09 0c88.33,17.43 107.95,57.11 120.04,146l0.48 623.25c-0.96,34.41 17.19,136.51 79.16,159.29 49.6,16.21 82.3,-23.47 112.06,-54.92 134.34,-142.58 230.22,-311.08 315.87,-485.56 38.01,-76.72 70.7,-156.4 102.37,-236.01 23.47,-59.07 60.3,-88.14 126.84,-86.85l540.01 0.48c16.01,0 32.21,0.24 47.72,2.89 91,15.51 115.93,54.65 87.83,143.51 -44.28,139.41 -130.44,255.59 -214.69,372.31 -90.06,124.61 -186.37,244.95 -275.68,370.3 -82.05,114.46 -75.54,172.16 26.39,271.58l0 0zm0 0z" />
    </g>
</svg>
