<?xml version="1.0" encoding="utf-8"?>
<svg version="1.1" xmlns:svg="http://www.w3.org/2000/svg" xmlns="http://www.w3.org/2000/svg" xmlns:xlink="http://www.w3.org/1999/xlink" x="0px" y="0px" viewBox="0 0 45.7 44" style="enable-background:new 0 0 45.7 44;" xml:space="preserve">
    <g transform="matrix(1.3333333,0,0,-1.3333333,-603.31745,105.07066)">
        <g transform="translate(486.8061,62.337)">
            <path style="fill: #AFCA0B;" d="M0,0c0,2-0.4,4-1.1,5.8C-1.3-0.1-7.5-4.7-11.2-7.7H-2 C-0.7-5.4,0-2.8,0,0 M-6.6,13c-2.9,2.2-6.6,3.5-10.5,3.5c-9.5,0-17.2-7.4-17.2-16.5s7.7-16.5,17.2-16.5 c4.3,0,8.3,1.6,11.3,4.1h-12.4v3.5c7.4,6.3,12,10.5,12,14.6c0,1.5-0.6,3.4-3.3,3.4c-2.1,0-4.2-1.2-3.8-6.2h-4.4 c-1.1,5.8,2.2,10.4,8.4,10.4C-8.4,13.3-7.5,13.2-6.6,13" />
        </g>
    </g>
</svg>
