<?xml version="1.0" encoding="utf-8"?>
<svg version="1.1" xmlns:svg="http://www.w3.org/2000/svg" xmlns="http://www.w3.org/2000/svg" xmlns:xlink="http://www.w3.org/1999/xlink" x="0px" y="0px" viewBox="0 0 187.5 190.3" style="enable-background:new 0 0 187.5 190.3;" xml:space="preserve">
    <g transform="translate(-176.03052,-224.24971)">
        <g transform="matrix(0.98012243,0,0,0.98012243,3.4990592,5.794271)">
            <path style="fill:#34A668;" d="M190.9,246.7h140.7c8.2,0,14.8,6.6,14.8,14.8v140.7c0,8.2-6.6,14.8-14.8,14.8H190.9 c-8.2,0-14.8-6.6-14.8-14.8V261.6C176,253.4,182.7,246.7,190.9,246.7z" />
            <path style="fill:#5C88C5;" d="M262.3,330.4l-82.2,82.2c2.7,2.8,6.5,4.6,10.7,4.6 h140.7c4.8,0,9-2.3,11.8-5.8L262.3,330.4z" />
            <path style="fill:#DD4B3E;" d=" M319.8,222.9c-26.3,0-47.6,20.3-47.6,45.4c0,7.8,1.9,15.5,5.9,22.3l0,0c1.2,2,2.4,4,3.4,6c0.9,1.4,1.8,2.8,2.7,4.3 c1,1.4,1.9,2.7,2.8,4.1c3.7,5,7.1,9.9,10.3,14.6c2.2,3.6,4.8,7.5,7,11.3c6.7,11.6,11.4,22.9,13,39.4c0,0,0,0,0,0 c0.5,1.2,1.5,1.9,2.5,1.9c1.1,0,2.2-0.9,2.6-2.3c1.7-16.3,6.3-27.6,13-39.1c2.2-3.8,4.7-7.7,7-11.3c3.2-4.7,6.6-9.6,10.3-14.6 c0.9-1.4,1.8-2.7,2.8-4.1c0.8-1.4,1.7-2.9,2.7-4.3c1-2,2.2-4,3.4-6l0,0c4-6.8,5.7-14.5,5.7-22.3 C367.3,243.2,346,222.9,319.8,222.9L319.8,222.9z" />
            <ellipse style="fill:#802D27;" cx="319.8" cy="268.3" rx="16.5" ry="15.8" />
            <path style="fill:#FFFFFF;" d="M216.5,263.4c-13.2,0-24,10.9-24,24.4 s10.7,24.4,24,24.4c8.6,0,13.6-2.7,18-7.1c4.3-4.4,5.9-11.1,5.9-17.8c0-1-0.1-2-0.2-3.1h-9.4H229h-12.3v8.6h13.7 c-0.6,2.2-1.5,4.1-3,5.6c-2.7,2.7-5.7,4.4-11.1,4.4c-8.2,0-14.8-6.7-14.8-15s6.6-15,14.8-15c4,0,7.4,1.2,10.2,3.7l6.8-6.8 c0,0,0,0,0,0C228.9,265.4,223.1,263.4,216.5,263.4L216.5,263.4z M229,279.4C229,279.5,229,279.5,229,279.4L229,279.4L229,279.4z" />
            <path style="fill:#C3C3C3;" d="M287,304.9l-22.6,22.6l80.7,80.7 c0.8-1.8,1.3-3.9,1.3-6v-88.3c-1.3,1.9-2.6,3.8-3.9,5.7c-2.2,3.6-4.8,7.5-7,11.3c-6.7,11.5-11.3,22.8-13,39.1 c-0.5,1.4-1.5,2.3-2.6,2.3c-1,0-2-0.7-2.5-1.9c0,0,0,0,0,0c-1.7-16.5-6.3-27.8-13-39.4c-2.2-3.8-4.7-7.7-7-11.3 C294.1,314.9,290.7,309.9,287,304.9C287,304.9,287,304.9,287,304.9L287,304.9z" />
            <path style="fill:#FDDC4F;" d="M280.8,295.2L176,399.9v2.3 c0,8.2,6.6,14.8,14.9,14.8h2.9L294.9,316c-2.5-3.6-5-7.3-7.8-11.1c-0.9-1.4-1.8-2.7-2.8-4.1c-0.8-1.4-1.7-2.9-2.7-4.3 C281.3,296.1,281,295.7,280.8,295.2L280.8,295.2z" />
            <path style="fill:#FFFFFF;" d="M278,330.9l-17.4,17.4l68.8,68.8h2.2 c8.2,0,14.8-6.6,14.8-14.8v-3L278,330.9z" />
        </g>
    </g>
</svg>
