<?xml version="1.0" encoding="utf-8"?>
<!-- Generator: Adobe Illustrator 22.0.1, SVG Export Plug-In . SVG Version: 6.00 Build 0)  -->
<svg version="1.1" id="Layer_2" xmlns="http://www.w3.org/2000/svg" xmlns:xlink="http://www.w3.org/1999/xlink" x="0px" y="0px"
	 viewBox="0 0 180 180" style="enable-background:new 0 0 180 180;" xml:space="preserve">
<style type="text/css">
	.st0{fill:#FFC549;}
	.st1{fill:#FFFFFF;}
</style>
<path class="st0" d="M135,86.5c0,11.3,9,20.6,20.3,20.6c11.3,0,20.4-9.4,20.4-20.6c0-11.3-9.1-20.1-20.4-20.1
	C144.1,66.4,135,75.2,135,86.5z"/>
<path class="st1" d="M128.9,11c0,0,19.1,0,22.5,0.6c3.3,0.5,5.2,4.4,3,8.8c-1.2,3.3-67.2,90.2-67.2,90.2s-11.9,43.5-12.9,47.9
	c-0.8,4.4-1.4,6.3-3.4,8.7c-1.9,2.9-5.3,3.8-7.5,3.8c-1.9,0-15.2-0.1-15.2-0.1s-14.1-0.1-16.8-0.4c-3.5-0.4-7.7-4.8-6.6-10.8
	c1.1-5.9,9.9-50.7,9.9-50.7s-21-60.2-27.6-79.2C5.8,26.2,4.8,23,4.8,19.3c0-3.7,0.9-6.2,3.6-7.2c2.2-1.1,6-1.1,12.4-1
	c1.4,0,3,0,4.7,0c10.7,0,13.9,0.1,16.5,0.1c2.6,0,6.4,0.9,8.5,5c2,4.1,13.5,45.2,13.9,46.7c0.4,2,3.4,2.2,4.6,1.1
	c1.4-1.5,33.5-47.6,34.4-48.9c2-2.5,3.8-3.5,7.7-3.9C115.4,10.6,128.9,11,128.9,11z"/>
</svg>
