<?xml version="1.0" encoding="utf-8"?>
<!-- Generator: Adobe Illustrator 22.0.1, SVG Export Plug-In . SVG Version: 6.00 Build 0)  -->
<svg version="1.1" id="Layer_1" xmlns="http://www.w3.org/2000/svg" xmlns:xlink="http://www.w3.org/1999/xlink" x="0px" y="0px"
	 viewBox="0 0 135.1 26.9" style="enable-background:new 0 0 135.1 26.9;" xml:space="preserve">
<path style="fill:#FFFFFF;" d="M27.1,0.6c-0.1,0.2-0.2,0.5-0.4,0.7c-0.1,0.3-0.2,0.6-0.3,0.9l-5.2,23.1c0.1,0.3,0.1,0.5,0.2,0.7
	s0.2,0.4,0.2,0.5c0.1,0.2,0.2,0.3,0.2,0.3h-6.2c0.1-0.1,0.1-0.2,0.2-0.3c0.1-0.2,0.2-0.6,0.4-1.1c-0.1-0.7-0.3-1.5-0.5-2.5
	c-0.2-1.1-0.4-2.2-0.6-3.3c-0.2-1.2-0.5-2.5-0.7-3.7c-0.3-1.3-0.5-2.5-0.8-3.8l-3,13.2c0.1,0.3,0.1,0.5,0.2,0.7
	c0.1,0.2,0.2,0.4,0.2,0.5c0.1,0.2,0.2,0.3,0.2,0.3H5.1c0.1-0.1,0.1-0.2,0.2-0.3c0.1-0.2,0.2-0.6,0.4-1.1c-0.2-1.2-0.5-2.3-0.7-3.5
	c-0.3-1.6-0.6-3.1-0.9-4.7c-0.3-1.7-0.7-3.4-1-5.1S2.4,8.9,2.2,7.5c-0.3-1.4-0.6-3-0.9-4.7C1.1,2.4,1,2,0.9,1.7
	C0.7,1.4,0.6,1.1,0.5,0.8C0.3,0.5,0.2,0.3,0,0h6.2C6.1,0.3,5.9,0.6,5.8,0.9C5.7,1.2,5.7,1.6,5.7,2c0,0.5,0,1,0.2,1.6
	c0.5,2.6,1,5.1,1.5,7.7c0.2,1.1,0.4,2.2,0.6,3.3c0.2,1.1,0.4,2.2,0.6,3.3L9.2,21c0.2,1,0.4,1.9,0.5,2.7L13,9
	c-0.3-1.8-0.6-3.2-0.9-4.4C12,4,11.9,3.4,11.7,2.8c-0.1-0.4-0.2-0.8-0.4-1.1c-0.1-0.3-0.2-0.6-0.4-0.9c-0.1-0.3-0.3-0.5-0.5-0.8h6.2
	c-0.2,0.3-0.3,0.6-0.4,0.9S16.1,1.5,16,2c0,0.5,0,1,0.2,1.6c0.5,2.6,1,5.1,1.5,7.7c0.2,1.1,0.4,2.2,0.6,3.3s0.4,2.2,0.6,3.3
	s0.4,2.1,0.6,3.1s0.4,1.9,0.5,2.7l4.9-21.9c0-0.2,0-0.4,0-0.6s0-0.4,0-0.6s0-0.4,0-0.6h2.2C27.3,0.2,27.2,0.4,27.1,0.6"/>
<path style="fill:#FFFFFF;" d="M33.5,22.3c0,0.9,0,1.6,0.1,2.2s0.2,1.1,0.3,1.4c0.1,0.4,0.3,0.8,0.5,1h-6.2c0.2-0.2,0.3-0.6,0.5-1
	c0.1-0.4,0.2-0.8,0.3-1.4c0.1-0.6,0.1-1.3,0.1-2.2V4.7c0-0.9,0-1.6-0.1-2.2s-0.2-1.1-0.3-1.4c-0.1-0.4-0.3-0.8-0.5-1h6.2
	c-0.2,0.2-0.3,0.6-0.5,1c-0.1,0.4-0.3,0.8-0.3,1.4s-0.1,1.3-0.1,2.2V22.3 M49.8,26.9H35.7c0.2-0.2,0.3-0.6,0.5-1
	c0.1-0.4,0.2-0.8,0.3-1.4s0.1-1.3,0.1-2.2V4.7c0-0.9,0-1.6-0.1-2.2s-0.2-1.1-0.3-1.4c-0.1-0.4-0.3-0.8-0.5-1H42
	c-0.2,0.2-0.3,0.6-0.5,1c-0.1,0.4-0.2,0.8-0.3,1.4C41.1,3,41,3.8,41,4.7v19.7c0,0.1,0,0.3,0.1,0.5s0.2,0.4,0.4,0.5
	c0.2,0.2,0.4,0.3,0.8,0.4c0.3,0.1,0.8,0.2,1.3,0.2H45c0.6,0,1.2-0.1,1.5-0.3c0.4-0.2,0.7-0.5,0.9-0.9s0.4-0.7,0.6-1.2
	c0.1-0.4,0.3-0.9,0.4-1.3h1L49.8,26.9 M65,26.9H51c0.2-0.2,0.3-0.6,0.5-1c0.1-0.4,0.2-0.8,0.3-1.4s0.1-1.3,0.1-2.2V4.7
	c0-0.9,0-1.6-0.1-2.2s-0.2-1.1-0.3-1.4c-0.1-0.4-0.3-0.8-0.5-1h6.2c-0.2,0.2-0.3,0.6-0.5,1c-0.1,0.4-0.2,0.8-0.3,1.4
	s-0.1,1.3-0.1,2.2v19.7c0,0.1,0,0.3,0.1,0.5s0.2,0.4,0.4,0.5c0.2,0.2,0.4,0.3,0.8,0.4c0.3,0.1,0.8,0.2,1.3,0.2h1.5
	c0.6,0,1.2-0.1,1.5-0.3c0.4-0.2,0.7-0.5,0.9-0.9s0.4-0.7,0.6-1.2c0.1-0.4,0.3-0.9,0.4-1.3h1L65,26.9 M84,22.3c0,0.9,0,1.6,0.1,2.2
	s0.2,1.1,0.3,1.4c0.1,0.4,0.3,0.8,0.5,1h-6.2c0.2-0.2,0.4-0.5,0.5-0.9s0.2-0.8,0.3-1.3c0.1-0.5,0.1-0.9,0.1-1.4s0-0.8,0-1.1v-17
	l-4.8,19.1h-1.3l-5.1-19v19.2c0,0.3,0,0.6,0.1,0.9s0.2,0.5,0.3,0.7c0.1,0.3,0.2,0.5,0.4,0.7h-2.8c0.1-0.2,0.3-0.4,0.4-0.7
	c0.1-0.2,0.2-0.5,0.3-0.7c0.1-0.3,0.1-0.6,0.1-0.9V4.2c0-0.8-0.1-1.5-0.2-2s-0.2-1-0.3-1.3c-0.1-0.4-0.2-0.7-0.4-0.9h5.2l4.2,15.7
	L79.6,0h5.3c-0.2,0.2-0.3,0.6-0.5,1c-0.1,0.4-0.3,0.8-0.3,1.4C84,3,84,3.8,84,4.7V22.3 M95,12.9l-1.7-8.1l-2,8.1H95z M96.7,26.9
	c0.2-0.3,0.3-0.6,0.4-0.9s0.1-0.7,0.2-1.1c0-0.4,0-1-0.1-1.6l-2-9.2h-4.3l-2.7,10.8c-0.1,0.2-0.1,0.5-0.1,0.7v0.6c0,0.2,0,0.4,0,0.6
	h-2.2c0.1-0.2,0.3-0.4,0.4-0.6s0.2-0.4,0.3-0.7c0.1-0.3,0.2-0.6,0.3-0.9l5.8-22.8c-0.2-0.7-0.4-1.2-0.5-1.4L91.8,0h4.8l5.2,24
	c0.1,0.4,0.2,0.8,0.3,1.2c0.1,0.3,0.3,0.6,0.4,0.9s0.3,0.5,0.5,0.8C103,26.9,96.7,26.9,96.7,26.9z M115.1,6.8c0-0.5-0.1-1-0.2-1.7
	s-0.4-1.3-0.7-1.9c-0.4-0.6-0.9-1.1-1.5-1.6C112,1.2,111.2,1,110.2,1h-1.1v20.8c0.3-0.2,0.6-0.3,0.8-0.4c0.4-0.1,0.9-0.1,1.4,0
	s0.8,0.4,0.9,0.8c-0.4-0.1-0.9,0-1.3,0.1s-0.7,0.4-1,0.7c-0.2,0.3-0.4,0.6-0.5,1s0,0.8,0.2,1.2c0.1,0.2,0.3,0.4,0.6,0.6
	c0.3,0.2,0.7,0.3,1.1,0.3h0.3c0.6,0,1.1-0.2,1.6-0.6c0.5-0.5,0.8-1,1.1-1.6c0.3-0.6,0.5-1.3,0.6-1.9c0.1-0.7,0.2-1.2,0.2-1.7
	L115.1,6.8L115.1,6.8z M112.3,0c1,0,2,0.2,2.9,0.5c0.8,0.3,1.6,0.8,2.3,1.5c0.6,0.6,1.1,1.3,1.5,2.2c0.4,0.8,0.5,1.7,0.5,2.6v13.3
	c0,0.9-0.2,1.8-0.5,2.6c-0.4,0.8-0.9,1.5-1.5,2.2c-0.7,0.6-1.4,1.1-2.3,1.5s-1.8,0.5-2.9,0.5h-8.7c0.2-0.2,0.3-0.6,0.5-1
	c0.1-0.4,0.2-0.8,0.3-1.4c0.1-0.6,0.1-1.3,0.1-2.2V4.7c0-0.9,0-1.6-0.1-2.2s-0.2-1.1-0.3-1.4c-0.1-0.4-0.3-0.8-0.5-1
	C103.6,0,112.3,0,112.3,0z M135.1,26.9H121c0.2-0.2,0.3-0.6,0.5-1c0.1-0.4,0.2-0.8,0.3-1.4c0.1-0.6,0.1-1.3,0.1-2.2V4.7
	c0-0.9,0-1.6-0.1-2.2s-0.2-1.1-0.3-1.4c-0.1-0.4-0.3-0.8-0.5-1h13.7l-0.4,3.7h-1c-0.1-0.4-0.3-0.9-0.4-1.3c-0.1-0.3-0.3-0.6-0.6-0.9
	c-0.3-0.2-0.7-0.4-1.2-0.5C130.6,1,129.9,1,128.9,1h-2.5v8.2c0.8,0.1,1.6,0.1,2.3,0c0.6,0,1.2-0.1,1.8-0.2c0.6-0.1,1.1-0.2,1.5-0.3
	c0,0.2,0,0.3,0,0.5c0,0.3-0.1,0.6-0.2,1.1c-0.1,0.4-0.4,0.6-0.9,0.7c-0.5,0.1-1,0.1-1.4,0l-3.1-0.8v14.1c0,0.1,0,0.3,0.1,0.5
	s0.2,0.4,0.4,0.5s0.4,0.3,0.8,0.4c0.3,0.1,0.8,0.2,1.3,0.2h1.5c0.6,0,1.2-0.1,1.5-0.3c0.4-0.2,0.7-0.5,0.9-0.9s0.4-0.8,0.5-1.2
	c0.1-0.4,0.3-0.9,0.4-1.3h1L135.1,26.9"/>
</svg>
