<?xml version="1.0" encoding="utf-8"?>
<!-- Generator: Adobe Illustrator 22.0.1, SVG Export Plug-In . SVG Version: 6.00 Build 0)  -->
<svg version="1.1" id="Слой_1" xmlns="http://www.w3.org/2000/svg" xmlns:xlink="http://www.w3.org/1999/xlink" x="0px" y="0px"
	 viewBox="0 0 345.2 113.9" style="enable-background:new 0 0 345.2 113.9;" xml:space="preserve">
<g>
	<g>
		<path style="fill:#DCCAA3;" d="M91,108.3h1.3V97.8H91v-1.6l6.3,0c0.6,0,1.1,0.1,1.6,0.3c0.5,0.2,0.9,0.5,1.3,0.8
			c0.4,0.4,0.7,0.8,0.9,1.3c0.2,0.5,0.3,1,0.3,1.6c0,0.6-0.2,1.1-0.5,1.6c-0.3,0.5-0.8,0.9-1.4,1.2c0.3,0.2,0.6,0.3,0.8,0.5
			c0.2,0.2,0.5,0.4,0.6,0.7c0.2,0.2,0.3,0.5,0.4,0.8c0.1,0.3,0.1,0.6,0.1,0.8c0,0.6-0.1,1.1-0.3,1.6c-0.2,0.5-0.5,0.9-0.9,1.3
			c-0.4,0.4-0.8,0.7-1.3,0.9c-0.5,0.2-1,0.3-1.6,0.3H91V108.3z M94.2,97.8v4.5h3.2c0.3,0,0.6-0.1,0.8-0.2c0.3-0.1,0.5-0.3,0.7-0.5
			c0.2-0.2,0.3-0.4,0.4-0.7c0.1-0.3,0.2-0.5,0.2-0.8c0-0.3-0.1-0.6-0.2-0.9c-0.1-0.3-0.3-0.5-0.4-0.8c-0.2-0.2-0.4-0.4-0.7-0.5
			c-0.3-0.1-0.5-0.2-0.8-0.2H94.2z M94.2,103.8v4.5h3.3c0.3,0,0.6-0.1,0.8-0.2c0.3-0.1,0.5-0.3,0.7-0.6c0.2-0.2,0.3-0.5,0.4-0.8
			c0.1-0.3,0.2-0.6,0.2-0.9c0-0.3-0.1-0.5-0.2-0.8c-0.1-0.2-0.3-0.5-0.4-0.7c-0.2-0.2-0.4-0.3-0.7-0.5c-0.3-0.1-0.5-0.2-0.8-0.2
			H94.2z"/>
		<path style="fill:#DCCAA3;" d="M116.7,108.3h1.2l-1.1-3.1h-5.4l-1.1,3.1h1.4v1.5h-4.5v-1.5h1.2l4.4-12.1h2.7l4.4,12.1h1.4v1.5
			h-4.5V108.3z M111.9,103.7h4.3l-2.2-6.1L111.9,103.7z"/>
		<path style="fill:#DCCAA3;" d="M127.6,96.2h5.8c0.6,0,1.2,0.1,1.7,0.2c0.5,0.2,1,0.4,1.4,0.7c0.4,0.3,0.7,0.7,0.9,1.2
			c0.2,0.5,0.3,1,0.3,1.6c0,0.3-0.1,0.7-0.2,1c-0.1,0.3-0.3,0.6-0.5,0.9c-0.2,0.3-0.5,0.5-0.8,0.8c-0.3,0.2-0.6,0.4-1,0.5
			c0.2,0.1,0.3,0.2,0.5,0.3c0.2,0.1,0.3,0.3,0.4,0.4c0.1,0.2,0.3,0.4,0.4,0.6c0.1,0.2,0.2,0.5,0.3,0.7l0.8,3h1.2l0,1.7h-2.7l-1-4.1
			c-0.2-0.7-0.5-1.3-0.9-1.6c-0.4-0.3-0.9-0.5-1.6-0.5h-1.8v4.8h1.4v1.5h-4.5v-1.5h1.3V97.8h-1.3V96.2z M130.7,97.8v4.3h2.7
			c0.4,0,0.7,0,1-0.1c0.3-0.1,0.5-0.2,0.8-0.4c0.2-0.2,0.4-0.4,0.5-0.7c0.1-0.3,0.2-0.6,0.2-0.9c0-0.7-0.2-1.2-0.6-1.6
			c-0.4-0.4-1.1-0.6-2-0.6H130.7z"/>
		<path style="fill:#DCCAA3;" d="M146,108.3h1.3V97.8H146v-1.6l6.3,0c0.6,0,1.1,0.1,1.6,0.3c0.5,0.2,0.9,0.5,1.3,0.8
			c0.4,0.4,0.7,0.8,0.9,1.3c0.2,0.5,0.3,1,0.3,1.6c0,0.6-0.2,1.1-0.5,1.6c-0.3,0.5-0.8,0.9-1.4,1.2c0.3,0.2,0.6,0.3,0.8,0.5
			c0.2,0.2,0.5,0.4,0.6,0.7c0.2,0.2,0.3,0.5,0.4,0.8c0.1,0.3,0.1,0.6,0.1,0.8c0,0.6-0.1,1.1-0.3,1.6c-0.2,0.5-0.5,0.9-0.9,1.3
			c-0.4,0.4-0.8,0.7-1.3,0.9c-0.5,0.2-1,0.3-1.6,0.3H146V108.3z M149.1,97.8v4.5h3.2c0.3,0,0.6-0.1,0.8-0.2c0.3-0.1,0.5-0.3,0.7-0.5
			c0.2-0.2,0.3-0.4,0.4-0.7c0.1-0.3,0.2-0.5,0.2-0.8c0-0.3-0.1-0.6-0.2-0.9c-0.1-0.3-0.3-0.5-0.5-0.8c-0.2-0.2-0.4-0.4-0.7-0.5
			c-0.3-0.1-0.5-0.2-0.8-0.2H149.1z M149.1,103.8v4.5h3.3c0.3,0,0.6-0.1,0.8-0.2c0.3-0.1,0.5-0.3,0.7-0.6c0.2-0.2,0.3-0.5,0.4-0.8
			c0.1-0.3,0.2-0.6,0.2-0.9c0-0.3-0.1-0.5-0.2-0.8c-0.1-0.2-0.3-0.5-0.4-0.7c-0.2-0.2-0.4-0.3-0.7-0.5c-0.3-0.1-0.5-0.2-0.8-0.2
			H149.1z"/>
		<path style="fill:#DCCAA3;" d="M163.4,96.2h10v3.9h-1.9v-2.3h-5v4.4h4.2v1.5h-4.2v4.6h5V106h1.9v3.8h-10v-1.5h1.3V97.8h-1.3V96.2z
			"/>
		<path style="fill:#DCCAA3;" d="M180.2,96.2h5.8c0.6,0,1.2,0.1,1.7,0.2c0.5,0.2,1,0.4,1.4,0.7c0.4,0.3,0.7,0.7,0.9,1.2
			c0.2,0.5,0.3,1,0.3,1.6c0,0.3-0.1,0.7-0.2,1c-0.1,0.3-0.3,0.6-0.5,0.9c-0.2,0.3-0.5,0.5-0.8,0.8c-0.3,0.2-0.6,0.4-1,0.5
			c0.2,0.1,0.3,0.2,0.5,0.3c0.2,0.1,0.3,0.3,0.4,0.4c0.1,0.2,0.3,0.4,0.4,0.6c0.1,0.2,0.2,0.5,0.3,0.7l0.8,3h1.2l0,1.7h-2.7l-1-4.1
			c-0.2-0.7-0.5-1.3-0.9-1.6c-0.4-0.3-0.9-0.5-1.6-0.5h-1.8v4.8h1.4v1.5h-4.5v-1.5h1.3V97.8h-1.3V96.2z M183.3,97.8v4.3h2.7
			c0.4,0,0.7,0,1-0.1c0.3-0.1,0.5-0.2,0.8-0.4c0.2-0.2,0.4-0.4,0.5-0.7c0.1-0.3,0.2-0.6,0.2-0.9c0-0.7-0.2-1.2-0.6-1.6
			c-0.4-0.4-1.1-0.6-2-0.6H183.3z"/>
		<path style="fill:#DCCAA3;" d="M205.5,98.7c-0.2-0.3-0.4-0.5-0.7-0.6c-0.2-0.1-0.5-0.2-0.8-0.3c-0.3-0.1-0.6-0.1-0.9-0.1
			c-0.5,0-0.9,0.1-1.2,0.2c-0.4,0.1-0.6,0.2-0.9,0.4c-0.2,0.2-0.4,0.4-0.5,0.6c-0.1,0.2-0.2,0.5-0.2,0.8c0,0.4,0.1,0.7,0.2,1
			c0.1,0.2,0.3,0.4,0.5,0.6c0.2,0.1,0.5,0.3,0.7,0.3c0.3,0.1,0.5,0.2,0.8,0.2l1.9,0.6c0.6,0.2,1.1,0.4,1.5,0.6
			c0.4,0.2,0.8,0.5,1.1,0.8c0.3,0.3,0.5,0.7,0.7,1c0.2,0.4,0.2,0.9,0.2,1.4c0,0.6-0.1,1.1-0.4,1.6c-0.2,0.5-0.6,0.9-1,1.2
			c-0.4,0.4-0.9,0.6-1.5,0.8c-0.6,0.2-1.2,0.3-1.9,0.3c-0.7,0-1.3-0.1-1.8-0.2c-0.5-0.2-0.9-0.4-1.3-0.6c-0.3-0.3-0.6-0.6-0.8-0.9
			c-0.2-0.3-0.4-0.7-0.5-1.1H198v-1.5h2.3c0,0.7,0.1,1.1,0.2,1.4s0.3,0.5,0.6,0.7c0.3,0.2,0.6,0.3,0.9,0.4c0.4,0.1,0.8,0.1,1.2,0.1
			c0.4,0,0.8,0,1.1-0.1c0.3-0.1,0.6-0.2,0.9-0.4c0.2-0.2,0.4-0.4,0.5-0.7c0.1-0.3,0.2-0.6,0.2-0.9c0-0.4-0.1-0.7-0.2-0.9
			c-0.2-0.3-0.4-0.5-0.6-0.7c-0.2-0.2-0.5-0.3-0.8-0.4c-0.3-0.1-0.6-0.2-0.8-0.3l-2-0.6c-0.4-0.1-0.8-0.3-1.2-0.5
			c-0.4-0.2-0.7-0.5-0.9-0.7c-0.3-0.3-0.5-0.6-0.6-1c-0.1-0.4-0.2-0.8-0.2-1.4c0-0.5,0.1-1,0.3-1.5c0.2-0.5,0.5-0.9,0.9-1.2
			c0.4-0.3,0.9-0.6,1.5-0.8c0.6-0.2,1.3-0.3,2-0.3c0.5,0,1,0.1,1.4,0.2c0.4,0.1,0.8,0.3,1.1,0.5c0.3,0.2,0.6,0.5,0.9,0.7
			c0.3,0.3,0.5,0.6,0.7,1h0.7v1.5h-2.3C205.8,99.4,205.7,99,205.5,98.7z"/>
		<path style="fill:#DCCAA3;" d="M224.5,96.2h4.5v1.5h-1.3v10.5h1.3v1.5h-4.5v-1.5h1.4v-4.9h-8.1v4.9h1.4v1.5h-4.5v-1.5h1.3V97.8
			h-1.3v-1.5h4.5v1.5h-1.4v4.1h8.1v-4.1h-1.4V96.2z"/>
		<path style="fill:#DCCAA3;" d="M242.7,110.1c-1,0-1.9-0.2-2.7-0.5c-0.8-0.4-1.5-0.8-2.1-1.5c-0.6-0.6-1.1-1.4-1.4-2.3
			c-0.3-0.9-0.5-1.8-0.5-2.8c0-1,0.2-1.9,0.5-2.8c0.3-0.9,0.8-1.6,1.4-2.2c0.6-0.6,1.3-1.1,2.1-1.5c0.8-0.4,1.7-0.6,2.7-0.6
			c1,0,1.9,0.2,2.7,0.6c0.8,0.4,1.5,0.9,2.1,1.5c0.6,0.6,1.1,1.4,1.4,2.2c0.3,0.9,0.5,1.8,0.5,2.8c0,1-0.2,1.9-0.5,2.8
			c-0.3,0.9-0.8,1.6-1.4,2.3c-0.6,0.6-1.3,1.1-2.1,1.5C244.6,109.9,243.7,110.1,242.7,110.1z M242.7,108.4c0.7,0,1.4-0.1,2-0.4
			c0.6-0.3,1.1-0.7,1.5-1.2c0.4-0.5,0.7-1.1,1-1.7c0.2-0.7,0.3-1.3,0.3-2.1c0-0.7-0.1-1.5-0.4-2.2c-0.2-0.7-0.6-1.3-1-1.8
			c-0.4-0.5-1-0.9-1.6-1.1c-0.6-0.3-1.2-0.4-1.8-0.4c-0.7,0-1.4,0.1-2,0.4c-0.6,0.3-1.1,0.7-1.5,1.2c-0.4,0.5-0.7,1.1-1,1.7
			c-0.2,0.7-0.3,1.3-0.3,2.1c0,0.8,0.1,1.6,0.4,2.2c0.3,0.7,0.6,1.2,1,1.6c0.4,0.4,0.9,0.8,1.5,1.1
			C241.3,108.3,242,108.4,242.7,108.4z"/>
		<path style="fill:#DCCAA3;" d="M256.3,96.2h5.7c0.6,0,1.2,0.1,1.7,0.2c0.5,0.2,1,0.4,1.4,0.7c0.4,0.3,0.7,0.7,0.9,1.2
			c0.2,0.5,0.3,1,0.3,1.6c0,0.5-0.1,1-0.3,1.4c-0.2,0.4-0.5,0.8-0.9,1.2c-0.4,0.3-0.8,0.6-1.4,0.8c-0.5,0.2-1.1,0.3-1.8,0.3h-2.5
			v4.8h1.4v1.5h-4.5v-1.5h1.3V97.8h-1.3V96.2z M259.5,97.8v4.3h2.5c0.4,0,0.7,0,1-0.1c0.3-0.1,0.5-0.2,0.8-0.4
			c0.2-0.2,0.4-0.4,0.5-0.7c0.1-0.3,0.2-0.6,0.2-0.9c0-0.7-0.2-1.2-0.6-1.6c-0.4-0.4-1.1-0.6-2-0.6H259.5z"/>
	</g>
	<g>
		<g>
			<path style="fill:#FFFFFF;" d="M70.2,2.8c-0.3,0.5-0.6,1.1-0.9,1.7c-0.3,0.6-0.6,1.4-0.7,2.3l-13.2,59c0.1,0.7,0.3,1.3,0.5,1.8
				c0.2,0.5,0.4,0.9,0.5,1.3c0.2,0.4,0.4,0.7,0.5,0.9H41.1c0.1-0.3,0.3-0.5,0.5-0.9c0.3-0.6,0.6-1.5,1-2.9c-0.4-1.7-0.8-3.8-1.3-6.3
				c-0.5-2.5-1-5.3-1.6-8.4c-0.6-3.1-1.2-6.2-1.9-9.5c-0.7-3.3-1.3-6.5-2-9.7l-7.5,33.7c0.1,0.7,0.3,1.3,0.5,1.8
				c0.2,0.5,0.4,0.9,0.5,1.3c0.2,0.4,0.4,0.7,0.5,0.9H14.1c0.1-0.3,0.3-0.5,0.5-0.9c0.3-0.6,0.6-1.5,1-2.9c-0.4-2.2-1-5.1-1.8-8.9
				c-0.7-3.7-1.5-7.7-2.3-12c-0.8-4.3-1.7-8.6-2.5-12.9C8,27.9,7.3,24,6.6,20.4c-0.7-3.5-1.5-7.6-2.4-12.1C3.9,7.3,3.6,6.3,3.3,5.5
				C3,4.7,2.6,3.9,2.3,3.3c-0.4-0.7-0.7-1.4-1.2-2H17c-0.4,0.6-0.8,1.3-1.1,2.2c-0.2,0.8-0.4,1.7-0.4,2.9c-0.1,1.2,0.1,2.5,0.4,4
				c1.3,6.7,2.5,13.2,3.8,19.6c0.5,2.7,1,5.5,1.6,8.4c0.6,2.9,1.1,5.7,1.6,8.5c0.5,2.8,1,5.4,1.5,8c0.5,2.6,1,4.9,1.4,6.8l8.4-37.6
				c-0.8-4.5-1.6-8.2-2.2-11.2c-0.6-3-0.9-4.5-0.9-4.5c-0.3-1.1-0.6-2.1-0.9-2.9c-0.3-0.8-0.7-1.6-1-2.2c-0.4-0.7-0.7-1.3-1.2-1.9
				h15.9C43.7,2,43.3,2.7,43,3.6c-0.2,0.7-0.4,1.6-0.4,2.8c-0.1,1.2,0.1,2.5,0.4,4c1.3,6.7,2.5,13.2,3.8,19.6c0.5,2.7,1,5.5,1.6,8.4
				c0.6,2.9,1.1,5.7,1.6,8.5c0.5,2.8,1,5.4,1.5,8c0.5,2.6,1,4.9,1.4,6.8L65.6,5.8c0.1-0.5,0.1-1,0.1-1.5c0-0.5-0.1-1-0.1-1.4
				c-0.1-0.5-0.1-1-0.1-1.4h5.7C70.8,1.7,70.5,2.2,70.2,2.8z"/>
		</g>
		<g>
			<path style="fill:#FFFFFF;" d="M86.6,58c0,2.3,0.1,4.1,0.3,5.6c0.2,1.5,0.5,2.7,0.8,3.6c0.3,1.1,0.7,1.9,1.2,2.5H73
				c0.4-0.6,0.8-1.4,1.2-2.5c0.3-0.9,0.5-2.1,0.8-3.6c0.2-1.5,0.4-3.4,0.4-5.6v-0.1V13.1c0-2.2-0.1-4.1-0.4-5.6
				c-0.2-1.5-0.5-2.7-0.8-3.6c-0.4-1.1-0.7-1.9-1.2-2.5h15.9c-0.5,0.6-0.9,1.4-1.2,2.5c-0.4,0.9-0.6,2.1-0.8,3.6
				c-0.2,1.5-0.3,3.4-0.3,5.6V58L86.6,58z"/>
		</g>
		<g>
			<path style="fill:#FFFFFF;" d="M128.1,69.8H92.2c0.4-0.6,0.8-1.4,1.2-2.5c0.3-0.9,0.5-2.1,0.8-3.6c0.2-1.5,0.4-3.4,0.4-5.6V13.1
				c0-2.2-0.1-4.1-0.4-5.6c-0.2-1.5-0.5-2.7-0.8-3.6c-0.4-1.1-0.7-1.9-1.2-2.5h15.9c-0.5,0.6-0.9,1.4-1.2,2.5
				c-0.4,0.9-0.6,2.1-0.8,3.6c-0.2,1.5-0.3,3.4-0.3,5.6v50.1c0,0.3,0.1,0.7,0.3,1.2c0.2,0.5,0.5,0.9,1,1.4c0.5,0.5,1.1,0.8,2,1.1
				c0.8,0.3,1.9,0.4,3.3,0.4h3.7c1.6,0,2.9-0.3,3.9-0.8c1-0.5,1.8-1.3,2.4-2.2c0.6-0.9,1.1-1.9,1.4-3c0.4-1.1,0.7-2.3,1.1-3.4h2.4
				L128.1,69.8z"/>
		</g>
		<g>
			<path style="fill:#FFFFFF;" d="M166.9,69.8h-35.9c0.4-0.6,0.8-1.4,1.2-2.5c0.3-0.9,0.5-2.1,0.8-3.6c0.2-1.5,0.4-3.4,0.4-5.6V13.1
				c0-2.2-0.1-4.1-0.4-5.6c-0.2-1.5-0.5-2.7-0.8-3.6c-0.4-1.1-0.7-1.9-1.2-2.5H147c-0.5,0.6-0.9,1.4-1.2,2.5
				c-0.4,0.9-0.6,2.1-0.8,3.6c-0.2,1.5-0.3,3.4-0.3,5.6v50.1c0,0.3,0.1,0.7,0.3,1.2c0.2,0.5,0.5,0.9,1,1.4c0.5,0.5,1.1,0.8,2,1.1
				c0.8,0.3,1.9,0.4,3.3,0.4h3.7c1.6,0,2.9-0.3,3.9-0.8c1-0.5,1.8-1.3,2.4-2.2c0.6-0.9,1.1-1.9,1.4-3c0.4-1.1,0.7-2.3,1.1-3.4h2.4
				L166.9,69.8z"/>
		</g>
		<g>
			<path style="fill:#FFFFFF;" d="M215.4,58c0,2.3,0.1,4.1,0.3,5.6c0.2,1.5,0.5,2.7,0.8,3.6c0.3,1.1,0.7,1.9,1.2,2.5h-15.9
				c0.5-0.4,0.9-1.2,1.2-2.2c0.3-1,0.6-2.1,0.7-3.2c0.2-1.2,0.3-2.3,0.3-3.5c0-1.2,0.1-2.1,0.1-2.9V14.7l-12.2,48.6h-3.3l-13.1-48.5
				v49.1c0,0.8,0.1,1.6,0.3,2.3c0.2,0.7,0.4,1.3,0.7,1.8c0.3,0.6,0.6,1.2,1,1.7h-7.2c0.4-0.5,0.7-1.1,1-1.7c0.2-0.5,0.4-1.1,0.6-1.8
				c0.2-0.7,0.3-1.5,0.3-2.4V12c-0.1-2.1-0.2-3.8-0.4-5.1c-0.2-1.4-0.5-2.4-0.7-3.3c-0.3-1-0.6-1.7-1.1-2.3h13.4l10.8,39.9l10-39.9
				h13.6c-0.5,0.6-0.9,1.4-1.2,2.5c-0.4,0.9-0.6,2.1-0.8,3.6c-0.2,1.5-0.3,3.4-0.3,5.6v0.1V58z"/>
		</g>
		<g>
			<path style="fill:#FFFFFF;" d="M247.8,69.8c0.4-0.6,0.7-1.3,1-2.2c0.2-0.8,0.4-1.7,0.5-2.8c0.1-1.1,0-2.5-0.4-4.1l-5-23.5h-11
				l-7,27.6c-0.1,0.6-0.2,1.3-0.2,1.8c0,0.6,0,1.1,0,1.6c0,0.6,0,1.1,0.1,1.6H220c0.4-0.4,0.7-1,1-1.5c0.3-0.5,0.5-1.1,0.8-1.8
				c0.2-0.7,0.5-1.4,0.8-2.3l14.8-58c-0.6-1.7-1-3-1.4-3.7l-0.6-1.2h12.2l6.6,30.7l6.6,30.7c0.2,1.1,0.5,2.1,0.8,2.9
				c0.4,0.9,0.7,1.6,1.1,2.3c0.4,0.7,0.7,1.3,1.2,1.9H247.8z M243.3,34l-4.5-20.7L233.6,34H243.3z"/>
		</g>
		<g>
			<path style="fill:#FFFFFF;" d="M287.5,1.3c2.6,0,5,0.5,7.3,1.3c2.2,0.9,4.2,2.1,5.8,3.7c1.6,1.6,2.9,3.4,3.8,5.5
				c0.9,2.1,1.4,4.3,1.4,6.7v33.9c0,2.4-0.5,4.6-1.4,6.7c-0.9,2.1-2.2,3.9-3.8,5.5c-1.6,1.6-3.6,2.8-5.8,3.7
				c-2.2,0.9-4.7,1.3-7.3,1.3h-22.2c0.4-0.6,0.8-1.4,1.2-2.5c0.3-0.9,0.5-2.1,0.8-3.6c0.2-1.5,0.4-3.4,0.4-5.6V13.1
				c0-2.2-0.1-4.1-0.4-5.6c-0.2-1.5-0.5-2.7-0.8-3.6c-0.4-1.1-0.7-1.9-1.2-2.5H287.5z M294.6,18.6c0-1.2-0.2-2.6-0.5-4.3
				c-0.3-1.7-1-3.3-1.9-4.9c-1-1.6-2.3-2.9-3.9-4c-1.7-1.1-3.8-1.6-6.4-1.6h-2.9v52.9c0.8-0.4,1.5-0.8,2.1-1c1.1-0.3,2.3-0.3,3.5,0
				c1.2,0.3,1.9,0.9,2.3,2c-1.1-0.2-2.2-0.1-3.2,0.3c-1,0.4-1.9,0.9-2.5,1.7c-0.6,0.7-1.1,1.6-1.3,2.6c-0.2,1-0.1,2,0.4,3
				c0.2,0.5,0.7,1,1.5,1.4c0.8,0.5,1.8,0.7,2.9,0.7h0.8c1.6,0,2.9-0.5,4-1.6c1.1-1.1,2.1-2.4,2.8-4c0.7-1.6,1.3-3.2,1.6-4.9
				c0.4-1.7,0.5-3.1,0.5-4.3V18.6z"/>
		</g>
		<g>
			<path style="fill:#FFFFFF;" d="M345.7,69.8h-35.9c0.4-0.6,0.8-1.4,1.2-2.5c0.3-0.9,0.5-2.1,0.8-3.6c0.2-1.5,0.4-3.4,0.4-5.6V13.1
				c0-2.2-0.1-4.1-0.4-5.6c-0.2-1.5-0.5-2.7-0.8-3.6c-0.4-1.1-0.7-1.9-1.2-2.5h34.8l-1,9.5h-2.4c-0.4-1.3-0.7-2.4-1.1-3.3
				c-0.4-0.9-0.9-1.6-1.6-2.2c-0.7-0.6-1.7-1-3.1-1.3c-1.3-0.3-3.2-0.4-5.6-0.4h-6.5v20.9c2.1,0.1,4.1,0.1,5.8,0
				c1.8-0.1,3.3-0.3,4.6-0.4c1.5-0.2,2.8-0.4,3.9-0.7c0.1,0.4,0.1,0.8,0.1,1.3c0,0.7-0.2,1.6-0.5,2.7c-0.4,1-1.1,1.6-2.3,1.9
				c-1.2,0.3-2.4,0.3-3.6,0l-8-2v35.9c0,0.3,0.1,0.7,0.3,1.2c0.2,0.5,0.5,0.9,1,1.4c0.5,0.4,1.1,0.8,2,1.1c0.8,0.3,1.9,0.4,3.3,0.4
				h3.7c1.6,0,2.9-0.3,3.9-0.8c1-0.5,1.8-1.3,2.4-2.2c0.6-0.9,1.1-2,1.4-3.1c0.3-1.1,0.7-2.3,1-3.4h2.4L345.7,69.8z"/>
		</g>
	</g>
</g>
</svg>
