<?xml version="1.0" encoding="utf-8"?>
<!-- Generator: Adobe Illustrator 22.0.1, SVG Export Plug-In . SVG Version: 6.00 Build 0)  -->
<svg version="1.1" id="Layer_1" xmlns="http://www.w3.org/2000/svg" xmlns:xlink="http://www.w3.org/1999/xlink" x="0px" y="0px"
	 viewBox="0 0 331.1 331.1" style="enable-background:new 0 0 331.1 331.1;" xml:space="preserve">
<style type="text/css">
	.st0{fill:#00A06B;}
</style>
<path class="st0" d="M159.1,75.2c-29.8,0-50,8.7-50,8.7v52.4h19.8V98.4c9.5-2.4,19.5-4.2,29.5-4.2c37.9,0,61.7,21.3,65.1,59.5h-65.4
	v17.6h65.6c-2.7,41.9-27.4,63.5-58.8,63.5c-21.1,0-41.1-10.8-46.9-35.6H98c4.7,38.5,37.7,54.5,65.1,54.5c50.8,0,81.9-37.1,81.9-88.5
	C245,110.5,213.4,75.2,159.1,75.2"/>
<path class="st0" d="M165.5,312.1C84.7,312.1,19,246.3,19,165.5S84.7,19,165.5,19S312,84.7,312,165.5
	C312.1,246.3,246.3,312.1,165.5,312.1 M165.5,0C74.3,0,0,74.3,0,165.5C0,256.8,74.3,331,165.5,331S331,256.7,331,165.5
	C331.1,74.3,256.8,0,165.5,0"/>
</svg>
