<?xml version="1.0" standalone="no"?>
<!DOCTYPE svg PUBLIC "-//W3C//DTD SVG 20010904//EN"
 "http://www.w3.org/TR/2001/REC-SVG-20010904/DTD/svg10.dtd">
<svg version="1.0" xmlns="http://www.w3.org/2000/svg"
 width="700.000000pt" height="700.000000pt" viewBox="0 0 700.000000 700.000000"
 preserveAspectRatio="xMidYMid meet">
<metadata>
Created by potrace 1.11, written by Peter Selinger 2001-2013
</metadata>
<g transform="translate(0.000000,700.000000) scale(0.100000,-0.100000)"
fill="#000000" stroke="none">
<path d="M3278 6996 c-1 -2 -42 -6 -89 -10 -47 -4 -95 -8 -105 -10 -10 -2 -45
-7 -78 -11 -71 -8 -85 -11 -211 -37 -884 -181 -1664 -701 -2187 -1458 -220
-319 -422 -768 -504 -1120 -40 -174 -66 -316 -79 -430 -27 -235 -27 -686 -1
-827 2 -10 7 -43 10 -73 7 -62 12 -94 26 -165 6 -27 12 -59 14 -71 31 -159
124 -461 196 -629 49 -116 158 -337 195 -395 14 -22 25 -44 25 -50 0 -5 5 -10
10 -10 6 0 10 -5 10 -10 0 -9 114 -188 147 -230 266 -345 474 -554 760 -767
388 -289 881 -516 1318 -607 17 -3 41 -9 55 -12 59 -12 189 -34 235 -40 28 -3
61 -7 75 -9 182 -25 626 -25 795 0 17 2 66 9 110 15 253 35 521 107 770 205
1035 408 1822 1290 2105 2360 34 128 76 334 86 420 3 33 8 69 10 80 10 50 19
244 18 395 0 242 -13 407 -49 605 -30 162 -30 163 -60 278 -178 688 -565 1304
-1115 1777 -41 36 -77 67 -80 70 -9 10 -225 165 -269 194 -429 277 -905 462
-1366 532 -27 4 -52 8 -55 9 -3 1 -41 5 -85 10 -44 4 -89 10 -100 12 -25 4
-532 13 -537 9z m512 -410 c19 -3 58 -8 85 -11 28 -3 61 -7 75 -10 14 -2 41
-6 60 -9 62 -9 190 -35 199 -40 5 -3 26 -8 46 -12 53 -8 271 -79 388 -125 282
-112 582 -288 793 -463 33 -28 76 -64 95 -79 161 -131 402 -405 546 -622 160
-241 310 -554 378 -790 9 -33 21 -71 26 -85 22 -62 70 -296 85 -413 3 -23 7
-53 10 -67 17 -106 23 -439 11 -595 -13 -157 -16 -178 -52 -380 -15 -80 -61
-252 -97 -360 -120 -358 -289 -666 -527 -965 -95 -119 -326 -355 -433 -440
-44 -36 -85 -70 -92 -75 -6 -6 -56 -42 -111 -80 -458 -319 -979 -508 -1518
-552 -238 -19 -560 -6 -772 32 -44 8 -91 16 -105 19 -14 2 -70 15 -125 29
-492 125 -941 362 -1305 688 -96 86 -220 212 -296 299 -21 25 -41 47 -45 50
-3 3 -18 23 -34 45 -17 22 -32 42 -35 45 -15 14 -113 156 -168 243 -234 371
-402 846 -447 1262 -3 28 -8 68 -12 90 -9 58 -11 438 -3 520 25 233 24 230 44
331 22 112 23 118 46 208 25 96 77 264 91 288 5 10 9 22 9 28 0 6 9 32 21 58
12 26 25 56 29 67 29 75 161 328 217 418 69 109 185 272 225 317 13 14 45 52
73 84 134 160 403 400 586 524 254 171 522 302 799 391 122 39 230 69 280 77
14 3 48 9 75 14 75 15 85 17 145 25 30 4 66 10 80 12 14 2 61 6 105 9 44 4 81
8 83 9 6 5 436 -3 472 -9z"/>
<path d="M3138 5405 c-1 -2 -32 -6 -68 -9 -108 -10 -142 -14 -215 -26 -38 -7
-83 -14 -100 -17 -99 -15 -398 -100 -435 -123 -12 -7 -14 -99 -14 -559 l-1
-551 35 -1 c134 -2 371 0 377 4 5 3 8 182 8 397 0 339 2 393 15 400 16 9 180
45 245 54 23 4 50 8 60 10 109 21 385 28 519 13 466 -51 826 -291 1010 -672
68 -142 112 -295 144 -507 5 -32 7 -60 4 -63 -3 -3 -314 -5 -692 -5 l-687 0 0
-185 0 -185 271 0 c149 -1 461 -1 694 -1 l423 0 -6 -57 c-8 -73 -14 -120 -20
-152 -2 -14 -7 -38 -10 -55 -3 -16 -8 -43 -11 -60 -23 -139 -151 -434 -238
-549 -237 -312 -565 -471 -971 -469 -355 2 -658 151 -835 413 -54 79 -79 133
-116 240 l-32 95 -211 3 -211 2 6 -32 c37 -215 93 -369 189 -519 238 -370 699
-604 1185 -602 81 1 231 10 267 17 11 3 43 8 70 11 118 17 317 78 438 136 340
162 602 430 767 786 87 188 158 461 176 673 14 164 7 508 -12 605 -2 11 -6 41
-10 66 -45 307 -176 626 -349 849 -214 275 -511 467 -865 560 -42 11 -90 23
-107 26 -16 2 -57 9 -90 15 -33 6 -76 13 -95 16 -42 5 -497 13 -502 8z"/>
</g>
</svg>
