<svg xmlns="http://www.w3.org/2000/svg" xmlns:xlink="http://www.w3.org/1999/xlink" viewBox="0 0 332 406">
    <g fill-rule="evenodd" fill="#ffffff">
        <path d="M159.147 75.243c-29.766 0-50.047 8.694-50.047 8.694v52.417h19.756V98.426c9.482-2.372 19.49-4.218 29.505-4.218 37.887 0 61.662 21.298 65.121 59.531h-65.387v17.647h65.597c-2.668 41.87-27.412 63.48-58.756 63.48-21.067 0-41.08-10.8-46.887-35.559H98.043c4.733 38.46 37.66 54.526 65.05 54.526 50.835 0 81.924-37.14 81.924-88.506 0-54.785-31.61-90.084-85.87-90.084"/>
        <path d="M165.53 312.061C84.733 312.061 19 246.328 19 165.53 19 84.733 84.733 19 165.53 19s146.53 65.733 146.53 146.53c0 80.798-65.733 146.531-146.53 146.531M165.53 0C74.257 0 0 74.257 0 165.53c0 91.274 74.257 165.531 165.53 165.531s165.53-74.257 165.53-165.531C331.06 74.257 256.803 0 165.53 0"/>
        <path d="M95.045 405.185h146.972v-17.648H95.045z" mask="url(#b)"/>
    </g>
</svg>
