<svg xmlns="http://www.w3.org/2000/svg" xmlns:xlink="http://www.w3.org/1999/xlink" width="239" height="271" viewBox="0 0 239 271">
    <defs>
        <path id="a" d="M0 70.857h58.833V0H0z"/>
    </defs>
    <g fill="none" fill-rule="evenodd">
        <path fill="#FFF" d="M0-3468h1280V372H0z"/>
        <g transform="translate(80 100)">
            <path fill="#FFF" d="M28.282 13.158c-5.29 0-8.894 1.52-8.894 1.52v9.167H22.9v-6.633c1.685-.414 3.464-.737 5.243-.737 6.733 0 10.958 3.724 11.573 10.41h-11.62v3.086h11.658c-.475 7.322-4.872 11.102-10.442 11.102-3.744 0-7.3-1.889-8.332-6.219h-3.556c.841 6.726 6.693 9.536 11.56 9.536 9.034 0 14.56-6.495 14.56-15.478 0-9.58-5.618-15.754-15.26-15.754"/>
            <path fill="#FFF" d="M29.417 54.572c-14.359 0-26.04-11.495-26.04-25.625S15.058 3.323 29.417 3.323c14.358 0 26.04 11.495 26.04 25.624 0 14.13-11.682 25.625-26.04 25.625m0-54.572C13.197 0 0 12.986 0 28.947 0 44.91 13.196 57.895 29.417 57.895c16.22 0 29.416-12.986 29.416-28.948C58.833 12.986 45.637 0 29.417 0"/>
            <mask id="b" fill="#fff">
                <use xlink:href="#a"/>
            </mask>
            <path fill="#FFF" d="M16.89 70.857H43.01v-3.086H16.891z" mask="url(#b)"/>
        </g>
    </g>
</svg>
