<svg xmlns="http://www.w3.org/2000/svg" xmlns:xlink="http://www.w3.org/1999/xlink" width="628" height="786" viewBox="0 0 628 786">
    <defs>
        <path id="a" d="M0 584.824h479.64V0H0z"/>
    </defs>
    <g fill="none" fill-rule="evenodd">
        <path fill="#FFF" d="M-652-114H628v3840H-652z"/>
        <g transform="translate(100 100)">
            <path fill="#FFF" d="M230.57 108.602c-43.124 0-72.507 12.549-72.507 12.549v75.656h28.622v-54.744c13.738-3.423 28.237-6.088 42.747-6.088 54.89 0 89.336 30.74 94.348 85.924h-94.733v25.471h95.038c-3.866 60.432-39.715 91.624-85.126 91.624-30.523 0-59.516-15.588-67.93-51.324h-28.984c6.857 55.51 54.56 78.7 94.244 78.7 73.648 0 118.69-53.606 118.69-127.745 0-79.074-45.795-130.023-124.408-130.023"/>
            <path fill="#FFF" d="M239.82 450.413c-117.059 0-212.292-94.876-212.292-211.495S122.76 27.424 239.82 27.424c117.058 0 212.291 94.875 212.291 211.494 0 116.62-95.233 211.495-212.291 211.495M239.82 0C107.584 0 0 107.179 0 238.918c0 131.74 107.584 238.919 239.82 238.919 132.235 0 239.819-107.179 239.819-238.92C479.639 107.18 372.055 0 239.819 0"/>
            <mask id="b" fill="#fff">
                <use xlink:href="#a"/>
            </mask>
            <path fill="#FFF" d="M137.7 584.824h212.933V559.35H137.701z" mask="url(#b)"/>
        </g>
    </g>
</svg>
